{"glyphs":{"0":{"ha":1006,"x_min":0,"x_max":0,"o":"m 954 472 b 504 -17 954 196 779 -17 b 53 472 225 -17 53 196 b 504 961 53 751 225 961 b 954 472 778 961 954 751 z m 724 472 b 504 751 724 658 608 751 b 283 472 400 751 283 658 b 504 193 283 285 400 193 b 724 472 608 193 724 285 z "},"1":{"ha":632,"x_min":0,"x_max":0,"o":"m 531 944 l 300 944 b 56 742 250 829 113 771 l 104 531 b 300 636 108 533 246 572 l 300 0 l 531 0 z "},"2":{"ha":856,"x_min":0,"x_max":0,"o":"m 428 961 b 72 611 208 961 72 804 l 304 611 b 428 753 304 692 353 753 b 554 633 501 753 554 708 b 74 204 554 460 74 204 l 74 0 l 768 0 l 768 204 l 399 204 b 783 633 399 204 783 379 b 428 961 783 806 665 961 z "},"3":{"ha":885,"x_min":0,"x_max":0,"o":"m 788 944 l 106 944 l 106 742 l 513 742 l 267 561 l 319 422 b 588 293 483 422 588 403 b 450 194 588 229 526 194 b 303 326 372 194 303 238 l 72 326 b 450 -17 72 150 210 -17 b 819 293 697 -17 819 129 b 557 556 819 443 704 529 l 788 756 z "},"4":{"ha":963,"x_min":0,"x_max":0,"o":"m 739 944 l 508 944 l 42 379 l 117 168 l 508 168 l 508 0 l 739 0 l 739 168 l 907 168 l 907 379 l 739 379 z m 508 667 l 508 379 l 272 379 z "},"5":{"ha":889,"x_min":0,"x_max":0,"o":"m 778 944 l 96 944 l 96 424 l 299 424 b 467 497 335 461 382 497 b 607 340 539 497 607 449 b 454 193 607 233 524 193 b 299 356 360 193 299 264 l 68 356 b 454 -17 68 169 217 -17 b 836 340 675 -17 836 110 b 507 668 836 490 738 668 b 326 610 426 668 367 639 l 326 736 l 778 736 z "},"6":{"ha":851,"x_min":0,"x_max":0,"o":"m 461 963 b 42 443 143 963 42 689 b 436 -17 42 142 214 -17 b 796 328 633 -17 796 110 b 474 647 796 543 624 647 b 265 554 353 647 300 592 b 474 758 293 657 333 758 b 681 688 579 758 664 701 l 782 860 b 461 963 740 882 624 963 z m 422 460 b 564 331 501 460 564 408 b 422 194 564 253 501 194 b 282 331 342 194 282 253 b 422 460 282 408 343 460 z "},"7":{"ha":817,"x_min":0,"x_max":0,"o":"m 758 744 l 388 0 l 140 0 l 501 733 l 58 733 l 58 944 l 758 944 z "},"8":{"ha":868,"x_min":0,"x_max":0,"o":"m 435 961 b 88 683 261 961 88 881 b 176 506 88 608 121 549 b 65 308 101 456 65 383 b 435 -17 65 90 244 -17 b 803 308 624 -17 803 90 b 692 506 803 383 767 456 b 782 683 747 549 782 608 b 435 961 782 881 607 961 z m 435 769 b 551 668 504 769 551 728 b 435 569 551 608 504 569 b 317 668 364 569 317 608 b 435 769 317 728 364 769 z m 435 429 b 572 308 518 429 572 372 b 435 194 572 243 518 194 b 296 308 350 194 296 243 b 435 429 296 372 350 429 z "},"9":{"ha":881,"x_min":0,"x_max":0,"o":"m 429 961 b 61 621 218 961 61 838 b 368 300 61 404 218 300 b 590 393 489 300 557 356 b 375 188 565 290 492 188 b 161 260 274 188 197 235 l 75 88 b 388 -17 103 64 225 -17 b 814 504 707 -17 814 258 b 429 961 814 806 638 961 z m 435 753 b 575 617 514 753 575 694 b 435 488 575 539 513 488 b 292 617 356 488 292 539 b 435 753 292 694 356 753 z "}," ":{"ha":329,"x_min":0,"x_max":0,"o":""},"A":{"ha":1163,"x_min":0,"x_max":0,"o":"m 871 0 l 1114 0 l 708 944 l 454 944 l 50 0 l 292 0 l 354 147 l 810 147 z m 433 333 l 583 686 l 731 333 z "},"Á":{"ha":1167,"x_min":0,"x_max":0,"o":"m 828 1176 l 756 1358 l 317 1176 l 385 1039 z m 871 0 l 1114 0 l 708 944 l 454 944 l 50 0 l 292 0 l 354 147 l 810 147 z m 433 333 l 583 686 l 731 333 z "},"Ă":{"ha":1167,"x_min":0,"x_max":0,"o":"m 579 1054 b 824 1224 694 1054 788 1126 l 683 1292 b 582 1218 663 1249 625 1218 b 483 1292 542 1218 506 1249 l 344 1224 b 579 1054 379 1126 474 1054 z m 871 0 l 1114 0 l 708 944 l 454 944 l 50 0 l 292 0 l 354 147 l 810 147 z m 433 333 l 583 686 l 731 333 z "},"Â":{"ha":1167,"x_min":0,"x_max":0,"o":"m 585 1211 l 814 1058 l 913 1178 l 585 1375 l 257 1178 l 356 1058 z m 871 0 l 1114 0 l 708 944 l 454 944 l 50 0 l 292 0 l 354 147 l 810 147 z m 433 333 l 583 686 l 731 333 z "},"Ä":{"ha":1167,"x_min":0,"x_max":0,"o":"m 388 1075 b 519 1204 461 1075 519 1135 b 388 1338 519 1278 461 1338 b 258 1204 317 1338 258 1278 b 388 1075 258 1135 317 1075 z m 776 1075 b 910 1204 850 1075 910 1135 b 776 1338 910 1278 850 1338 b 647 1204 707 1338 647 1278 b 776 1075 647 1135 707 1075 z m 874 0 l 1117 0 l 711 947 l 456 947 l 50 0 l 293 0 l 356 147 l 813 147 z m 435 335 l 585 689 l 733 335 z "},"À":{"ha":1167,"x_min":0,"x_max":0,"o":"m 839 1188 l 400 1369 l 322 1183 l 765 1046 z m 871 0 l 1114 0 l 708 944 l 454 944 l 50 0 l 292 0 l 354 147 l 810 147 z m 433 333 l 583 686 l 731 333 z "},"Ā":{"ha":1167,"x_min":0,"x_max":0,"o":"m 892 1253 l 271 1253 l 271 1069 l 892 1069 z m 871 0 l 1114 0 l 708 944 l 454 944 l 50 0 l 292 0 l 354 147 l 810 147 z m 433 333 l 583 686 l 731 333 z "},"Ą":{"ha":1167,"x_min":0,"x_max":0,"o":"m 992 -117 b 1117 0 992 -37 1117 0 l 1043 167 l 708 944 l 454 944 l 50 0 l 292 0 l 354 147 l 810 147 l 864 15 b 793 -143 824 -33 793 -87 b 960 -306 793 -235 881 -306 l 1068 -189 b 992 -117 1067 -189 992 -168 z m 433 333 l 583 686 l 731 333 z "},"Å":{"ha":1163,"x_min":0,"x_max":0,"o":"m 581 1219 b 414 1050 490 1219 414 1144 b 471 926 414 1001 436 956 l 50 0 l 292 0 l 354 147 l 808 147 l 871 0 l 1114 0 l 692 926 b 750 1050 726 956 750 1001 b 581 1219 750 1144 675 1219 z m 582 1101 b 632 1051 610 1101 632 1079 b 582 1003 632 1025 610 1003 b 532 1051 556 1003 532 1025 b 582 1101 532 1079 556 1101 z m 582 688 l 729 333 l 433 333 z "},"Ǻ":{"ha":1163,"x_min":0,"x_max":0,"o":"m 614 1311 b 471 1176 614 1311 518 1221 b 414 1050 438 1146 414 1101 b 471 926 414 1001 436 956 l 50 0 l 292 0 l 354 147 l 808 147 l 871 0 l 1114 0 l 692 926 b 750 1050 726 956 750 1001 b 678 1189 750 1108 721 1158 l 719 1228 z m 582 1101 b 632 1051 610 1101 632 1079 b 582 1003 632 1025 610 1003 b 532 1051 556 1003 532 1025 b 582 1101 532 1079 556 1101 z m 582 688 l 729 333 l 433 333 z "},"Ã":{"ha":1163,"x_min":0,"x_max":0,"o":"m 435 1124 b 706 1067 536 1124 600 1067 b 913 1158 832 1067 913 1153 l 856 1306 b 706 1263 856 1306 804 1263 b 432 1322 613 1263 551 1322 b 254 1261 338 1322 256 1264 l 297 1089 b 435 1124 297 1089 360 1124 z m 871 0 l 1114 0 l 708 944 l 454 944 l 50 0 l 292 0 l 354 147 l 810 147 z m 433 333 l 583 686 l 731 333 z "},"Æ":{"ha":1547,"x_min":0,"x_max":0,"o":"m 985 733 l 1481 733 l 1481 944 l 504 944 l 50 0 l 286 0 l 465 374 l 754 374 l 754 0 l 1481 0 l 1481 211 l 985 211 l 985 374 l 1399 374 l 1399 571 l 985 571 z m 754 733 l 754 571 l 560 571 l 639 733 z "},"Ǽ":{"ha":1560,"x_min":0,"x_max":0,"o":"m 724 1176 l 792 1039 l 1235 1176 l 1163 1358 z m 985 733 l 1481 733 l 1481 944 l 504 944 l 50 0 l 286 0 l 465 374 l 754 374 l 754 0 l 1481 0 l 1481 211 l 985 211 l 985 374 l 1399 374 l 1399 571 l 985 571 z m 754 733 l 754 571 l 560 571 l 639 733 z "},"B":{"ha":982,"x_min":0,"x_max":0,"o":"m 786 504 b 875 685 807 519 875 588 b 515 944 875 836 789 944 l 106 944 l 106 0 l 571 0 b 928 275 829 0 928 121 b 786 504 928 376 878 458 z m 529 553 l 333 553 l 333 750 l 529 750 b 658 656 617 750 658 719 b 529 553 658 582 628 553 z m 682 288 b 544 196 682 226 636 196 l 333 196 l 333 379 l 544 379 b 682 288 635 379 682 357 z "},"C":{"ha":1060,"x_min":0,"x_max":0,"o":"m 819 340 b 571 197 774 257 688 197 b 290 479 406 197 290 329 b 571 756 290 635 406 756 b 822 613 690 756 778 699 l 1015 725 b 571 961 931 867 772 961 b 60 479 275 961 60 742 b 571 -17 60 200 275 -17 b 1013 229 771 -17 928 88 z "},"Ć":{"ha":1060,"x_min":0,"x_max":0,"o":"m 297 1176 l 365 1039 l 808 1176 l 736 1358 z m 819 340 b 571 197 774 257 688 197 b 290 479 406 197 290 329 b 571 756 290 635 406 756 b 822 613 690 756 778 699 l 1015 725 b 571 961 931 867 772 961 b 60 479 275 961 60 742 b 571 -17 60 200 275 -17 b 1013 229 771 -17 928 88 z "},"Č":{"ha":1060,"x_min":0,"x_max":0,"o":"m 753 1393 l 538 1247 l 322 1393 l 224 1267 l 538 1068 l 851 1267 z m 819 340 b 571 197 774 257 688 197 b 290 479 406 197 290 329 b 571 756 290 635 406 756 b 822 613 690 756 778 699 l 1015 725 b 571 961 931 867 772 961 b 60 479 275 961 60 742 b 571 -17 60 200 275 -17 b 1013 229 771 -17 928 88 z "},"Ç":{"ha":1057,"x_min":0,"x_max":0,"o":"m 819 340 b 571 197 774 257 688 197 b 290 479 406 197 290 329 b 571 756 290 635 406 756 b 822 613 690 756 778 699 l 1015 725 b 571 961 931 867 772 961 b 60 479 275 961 60 742 b 571 -17 60 200 275 -17 b 1013 229 771 -17 928 88 z m 260 -151 l 260 -326 l 801 -326 l 801 -151 z "},"Ċ":{"ha":1060,"x_min":0,"x_max":0,"o":"m 533 1328 b 404 1194 463 1328 404 1268 b 533 1065 404 1125 463 1065 b 665 1194 607 1065 665 1125 b 533 1328 665 1268 607 1328 z m 819 340 b 571 197 774 257 688 197 b 290 479 406 197 290 329 b 571 756 290 635 406 756 b 822 613 690 756 778 699 l 1015 725 b 571 961 931 867 772 961 b 60 479 275 961 60 742 b 571 -17 60 200 275 -17 b 1013 229 771 -17 928 88 z "},"D":{"ha":1076,"x_min":0,"x_max":0,"o":"m 524 944 l 106 943 l 106 0 l 524 0 b 1022 474 818 0 1022 199 b 524 944 1022 746 835 946 z m 333 733 l 524 733 b 792 474 685 733 792 643 b 524 211 792 315 682 211 l 333 211 z "},"Ð":{"ha":1200,"x_min":0,"x_max":0,"o":"m 643 944 l 225 944 l 225 571 l 50 571 l 50 374 l 225 374 l 225 0 l 643 0 b 1142 474 938 0 1142 199 b 643 944 1142 746 954 944 z m 643 733 b 911 474 804 733 911 643 b 643 211 911 315 801 211 l 454 211 l 454 374 l 731 374 l 731 571 l 454 571 l 454 733 z "},"Ď":{"ha":1076,"x_min":0,"x_max":0,"o":"m 714 1394 l 499 1249 l 283 1394 l 185 1268 l 499 1069 l 813 1268 z m 524 944 l 106 944 l 106 0 l 524 0 b 1022 474 818 0 1022 199 b 524 944 1022 746 835 944 z m 333 733 l 524 733 b 792 474 685 733 792 643 b 524 211 792 315 682 211 l 333 211 z "},"Đ":{"ha":1200,"x_min":0,"x_max":0,"o":"m 643 944 l 225 944 l 225 571 l 50 571 l 50 374 l 225 374 l 225 0 l 643 0 b 1142 474 938 0 1142 199 b 643 944 1142 746 954 944 z m 643 733 b 911 474 804 733 911 643 b 643 211 911 315 801 211 l 454 211 l 454 374 l 731 374 l 731 571 l 454 571 l 454 733 z "},"E":{"ha":908,"x_min":0,"x_max":0,"o":"m 106 944 l 106 0 l 829 0 l 829 211 l 333 211 l 333 374 l 747 374 l 747 571 l 333 571 l 333 733 l 829 733 l 829 944 z "},"É":{"ha":908,"x_min":0,"x_max":0,"o":"m 215 1176 l 283 1039 l 726 1176 l 654 1358 z m 106 944 l 106 0 l 829 0 l 829 211 l 333 211 l 333 374 l 747 374 l 747 571 l 333 571 l 333 733 l 829 733 l 829 944 z "},"Ĕ":{"ha":908,"x_min":0,"x_max":0,"o":"m 710 1221 l 569 1289 b 468 1215 549 1246 511 1215 b 369 1289 428 1215 392 1246 l 231 1221 b 465 1051 265 1124 360 1051 b 710 1221 581 1051 674 1124 z m 106 944 l 106 0 l 829 0 l 829 211 l 333 211 l 333 374 l 747 374 l 747 571 l 333 571 l 333 733 l 829 733 l 829 944 z "},"Ě":{"ha":908,"x_min":0,"x_max":0,"o":"m 700 1393 l 485 1247 l 269 1393 l 171 1267 l 485 1068 l 799 1267 z m 106 944 l 106 0 l 829 0 l 829 211 l 333 211 l 333 374 l 747 374 l 747 571 l 333 571 l 333 733 l 829 733 l 829 944 z "},"Ê":{"ha":908,"x_min":0,"x_max":0,"o":"m 456 1208 l 685 1056 l 783 1175 l 456 1372 l 128 1175 l 226 1056 z m 106 944 l 106 0 l 829 0 l 829 211 l 333 211 l 333 374 l 747 374 l 747 571 l 333 571 l 333 733 l 829 733 l 829 944 z "},"Ë":{"ha":908,"x_min":0,"x_max":0,"o":"m 254 1335 b 125 1201 183 1335 125 1275 b 254 1072 125 1132 183 1072 b 386 1201 328 1072 386 1132 b 254 1335 386 1275 328 1335 z m 643 1335 b 514 1201 574 1335 514 1275 b 643 1072 514 1132 574 1072 b 776 1201 717 1072 776 1132 b 643 1335 776 1275 717 1335 z m 106 944 l 106 0 l 829 0 l 829 211 l 333 211 l 333 374 l 747 374 l 747 571 l 333 571 l 333 733 l 829 733 l 829 944 z "},"Ė":{"ha":908,"x_min":0,"x_max":0,"o":"m 464 1328 b 335 1194 393 1328 335 1268 b 464 1065 335 1125 393 1065 b 596 1194 538 1065 596 1125 b 464 1328 596 1268 538 1328 z m 106 944 l 106 0 l 829 0 l 829 211 l 333 211 l 333 374 l 747 374 l 747 571 l 333 571 l 333 733 l 829 733 l 829 944 z "},"È":{"ha":908,"x_min":0,"x_max":0,"o":"m 214 1183 l 657 1046 l 731 1188 l 292 1369 z m 106 944 l 106 0 l 829 0 l 829 211 l 333 211 l 333 374 l 747 374 l 747 571 l 333 571 l 333 733 l 829 733 l 829 944 z "},"Ē":{"ha":908,"x_min":0,"x_max":0,"o":"m 781 1069 l 781 1253 l 160 1253 l 160 1069 z m 106 944 l 106 0 l 829 0 l 829 211 l 333 211 l 333 374 l 747 374 l 747 571 l 333 571 l 333 733 l 829 733 l 829 944 z "},"Ę":{"ha":908,"x_min":0,"x_max":0,"o":"m 829 733 l 829 944 l 106 944 l 106 0 l 540 0 b 506 -111 519 -29 506 -67 b 683 -290 506 -233 622 -290 l 779 -189 b 703 -117 778 -189 703 -168 b 828 0 703 -37 828 0 l 829 0 l 829 211 l 333 211 l 333 374 l 747 374 l 747 571 l 333 571 l 333 733 z "},"F":{"ha":901,"x_min":0,"x_max":0,"o":"m 829 944 l 106 944 l 106 0 l 333 0 l 333 307 l 747 307 l 747 517 l 333 517 l 333 733 l 829 733 z "},"G":{"ha":1072,"x_min":0,"x_max":0,"o":"m 572 961 b 60 472 275 961 60 735 b 574 -17 60 218 261 -17 b 1006 192 850 -17 999 178 l 1006 542 l 517 542 l 517 367 l 804 367 l 804 275 b 572 196 754 228 674 196 b 289 475 407 196 289 325 b 569 747 289 632 404 747 b 799 654 678 747 751 714 l 996 754 b 572 961 901 879 754 961 z "},"Ğ":{"ha":1072,"x_min":0,"x_max":0,"o":"m 771 1221 l 631 1289 b 529 1215 610 1246 572 1215 b 431 1289 489 1215 453 1246 l 292 1221 b 526 1051 326 1124 421 1051 b 771 1221 642 1051 735 1124 z m 572 961 b 60 472 275 961 60 735 b 574 -17 60 218 261 -17 b 1006 192 850 -17 999 178 l 1006 542 l 517 542 l 517 367 l 804 367 l 804 275 b 572 196 754 228 674 196 b 289 475 407 196 289 325 b 569 747 289 632 404 747 b 799 654 678 747 751 714 l 996 754 b 572 961 901 879 754 961 z "},"Ģ":{"ha":1072,"x_min":0,"x_max":0,"o":"m 572 961 b 60 472 275 961 60 735 b 574 -17 60 218 261 -17 b 1006 192 850 -17 999 178 l 1006 542 l 517 542 l 517 367 l 804 367 l 804 275 b 572 196 754 228 674 196 b 289 475 407 196 289 325 b 569 747 289 632 404 747 b 799 654 678 747 751 714 l 996 754 b 572 961 901 879 754 961 z m 725 -324 l 479 -583 l 342 -475 l 535 -175 z "},"Ġ":{"ha":1072,"x_min":0,"x_max":0,"o":"m 531 1328 b 401 1194 460 1328 401 1268 b 531 1065 401 1125 460 1065 b 663 1194 604 1065 663 1125 b 531 1328 663 1268 604 1328 z m 572 961 b 60 472 275 961 60 735 b 574 -17 60 218 261 -17 b 1006 192 850 -17 999 178 l 1006 542 l 517 542 l 517 367 l 804 367 l 804 275 b 572 196 754 228 674 196 b 289 475 407 196 289 325 b 569 747 289 632 404 747 b 799 654 678 747 751 714 l 996 754 b 572 961 901 879 754 961 z "},"H":{"ha":1083,"x_min":0,"x_max":0,"o":"m 978 944 l 749 944 l 749 578 l 333 578 l 333 944 l 106 944 l 106 0 l 333 0 l 333 367 l 749 367 l 749 0 l 978 0 z "},"Ħ":{"ha":1233,"x_min":0,"x_max":0,"o":"m 1054 944 l 825 944 l 825 815 l 410 815 l 410 944 l 182 944 l 182 815 l 42 815 l 42 646 l 182 646 l 182 0 l 410 0 l 410 367 l 825 367 l 825 0 l 1054 0 l 1054 646 l 1192 646 l 1192 815 l 1054 815 z m 825 646 l 825 578 l 410 578 l 410 646 z "},"I":{"ha":439,"x_min":0,"x_max":0,"o":"m 333 944 l 106 944 l 106 0 l 333 0 z "},"Í":{"ha":439,"x_min":0,"x_max":0,"o":"m -47 1176 l 21 1039 l 464 1176 l 392 1358 z m 333 944 l 106 944 l 106 0 l 333 0 z "},"Ĭ":{"ha":439,"x_min":0,"x_max":0,"o":"m 458 1221 l 318 1289 b 217 1215 297 1246 260 1215 b 118 1289 176 1215 140 1246 l -21 1221 b 214 1051 14 1124 108 1051 b 458 1221 329 1051 422 1124 z m 333 944 l 106 944 l 106 0 l 333 0 z "},"Î":{"ha":439,"x_min":0,"x_max":0,"o":"m 213 1208 l 442 1056 l 540 1175 l 213 1372 l -115 1175 l -17 1056 z m 333 944 l 106 944 l 106 0 l 333 0 z "},"Ï":{"ha":439,"x_min":0,"x_max":0,"o":"m 10 1335 b -119 1201 -61 1335 -119 1275 b 10 1072 -119 1132 -61 1072 b 142 1201 83 1072 142 1132 b 10 1335 142 1275 83 1335 z m 399 1335 b 269 1201 329 1335 269 1275 b 399 1072 269 1132 329 1072 b 532 1201 472 1072 532 1132 b 399 1335 532 1275 472 1335 z m 333 944 l 106 944 l 106 0 l 333 0 z "},"İ":{"ha":439,"x_min":0,"x_max":0,"o":"m 218 1328 b 89 1194 147 1328 89 1268 b 218 1065 89 1125 147 1065 b 350 1194 292 1065 350 1125 b 218 1328 350 1268 292 1328 z m 333 944 l 106 944 l 106 0 l 333 0 z "},"Ì":{"ha":439,"x_min":0,"x_max":0,"o":"m -26 1183 l 417 1046 l 490 1188 l 51 1369 z m 333 944 l 106 944 l 106 0 l 333 0 z "},"Ī":{"ha":439,"x_min":0,"x_max":0,"o":"m 531 1069 l 531 1253 l -90 1253 l -90 1069 z m 333 944 l 106 944 l 106 0 l 333 0 z "},"Į":{"ha":454,"x_min":0,"x_max":0,"o":"m 225 -117 b 349 0 225 -37 349 0 l 346 8 l 346 944 l 118 944 l 118 56 b 26 -111 67 19 26 -33 b 218 -290 26 -233 157 -290 l 313 -189 b 225 -117 311 -189 225 -168 z "},"J":{"ha":894,"x_min":0,"x_max":0,"o":"m 815 944 l 586 944 l 586 408 b 436 194 586 264 531 194 b 285 399 343 194 285 264 l 57 399 b 436 -17 57 154 225 -17 b 815 408 692 -17 815 154 z "},"K":{"ha":1086,"x_min":0,"x_max":0,"o":"m 981 944 l 694 944 l 333 529 l 333 944 l 106 944 l 106 0 l 333 0 l 333 213 l 496 390 l 754 0 l 1050 0 l 656 564 z "},"Ķ":{"ha":1086,"x_min":0,"x_max":0,"o":"m 981 944 l 694 944 l 333 529 l 333 944 l 106 944 l 106 0 l 333 0 l 333 213 l 496 390 l 754 0 l 1050 0 l 656 564 z m 713 -324 l 467 -583 l 329 -475 l 522 -175 z "},"L":{"ha":886,"x_min":0,"x_max":0,"o":"m 333 944 l 106 944 l 106 0 l 829 0 l 829 211 l 333 211 z "},"Ĺ":{"ha":886,"x_min":0,"x_max":0,"o":"m -18 1176 l 50 1039 l 493 1176 l 421 1358 z m 333 944 l 106 944 l 106 0 l 829 0 l 829 211 l 333 211 z "},"Ľ":{"ha":886,"x_min":0,"x_max":0,"o":"m 333 944 l 106 944 l 106 0 l 829 0 l 829 211 l 333 211 z m 511 592 l 707 557 l 778 911 l 561 944 z "},"Ļ":{"ha":886,"x_min":0,"x_max":0,"o":"m 333 944 l 106 944 l 106 0 l 829 0 l 829 211 l 333 211 z m 614 -324 l 368 -583 l 231 -475 l 424 -175 z "},"Ŀ":{"ha":886,"x_min":0,"x_max":0,"o":"m 333 944 l 106 944 l 106 0 l 829 0 l 829 211 l 333 211 z m 646 688 b 517 554 575 688 517 628 b 646 425 517 485 575 425 b 778 554 719 425 778 485 b 646 688 778 628 719 688 z "},"Ł":{"ha":886,"x_min":0,"x_max":0,"o":"m 333 211 l 333 436 l 547 554 l 547 792 l 333 675 l 333 944 l 106 944 l 106 550 l -12 485 l -12 244 l 106 310 l 106 0 l 829 0 l 829 211 z "},"M":{"ha":1374,"x_min":0,"x_max":0,"o":"m 1269 944 l 1015 944 l 688 251 l 358 944 l 106 944 l 106 0 l 333 0 l 333 482 l 560 0 l 814 0 l 1040 482 l 1040 0 l 1269 0 z "},"N":{"ha":1121,"x_min":0,"x_max":0,"o":"m 1028 944 l 799 944 l 799 368 l 321 944 l 92 944 l 92 0 l 321 0 l 321 578 l 799 0 l 1028 0 z "},"Ń":{"ha":1121,"x_min":0,"x_max":0,"o":"m 304 1176 l 372 1039 l 815 1176 l 743 1358 z m 1028 944 l 799 944 l 799 368 l 321 944 l 92 944 l 92 0 l 321 0 l 321 578 l 799 0 l 1028 0 z "},"Ň":{"ha":1121,"x_min":0,"x_max":0,"o":"m 753 1393 l 538 1247 l 322 1393 l 224 1267 l 538 1068 l 851 1267 z m 1028 944 l 799 944 l 799 368 l 321 944 l 92 944 l 92 0 l 321 0 l 321 578 l 799 0 l 1028 0 z "},"Ņ":{"ha":1121,"x_min":0,"x_max":0,"o":"m 1028 944 l 799 944 l 799 368 l 321 944 l 92 944 l 92 0 l 321 0 l 321 578 l 799 0 l 1028 0 z m 736 -324 l 490 -583 l 353 -475 l 546 -175 z "},"Ŋ":{"ha":1147,"x_min":0,"x_max":0,"o":"m 1042 944 l 811 944 l 811 368 l 333 944 l 106 944 l 106 0 l 333 0 l 333 578 l 811 0 b 793 -61 811 0 828 -36 b 683 -40 764 -81 683 -40 l 644 -189 b 933 -224 644 -189 829 -250 b 1042 0 1026 -199 1042 -100 z "},"Ñ":{"ha":1121,"x_min":0,"x_max":0,"o":"m 411 1321 b 233 1260 317 1321 235 1263 l 276 1088 b 414 1122 276 1088 339 1122 b 685 1065 515 1122 579 1065 b 892 1157 811 1065 892 1151 l 835 1304 b 685 1261 835 1304 783 1261 b 411 1321 592 1261 531 1321 z m 1028 944 l 799 944 l 799 368 l 321 944 l 92 944 l 92 0 l 321 0 l 321 578 l 799 0 l 1028 0 z "},"O":{"ha":1064,"x_min":0,"x_max":0,"o":"m 532 961 b 44 472 261 961 44 740 b 532 -17 44 203 261 -17 b 1019 472 800 -17 1019 203 b 532 961 1019 740 800 961 z m 532 749 b 808 472 683 749 808 625 b 532 194 808 318 683 194 b 253 472 378 194 253 318 b 532 749 253 625 378 749 z "},"Ó":{"ha":1064,"x_min":0,"x_max":0,"o":"m 289 1176 l 357 1039 l 800 1176 l 728 1358 z m 532 961 b 44 472 261 961 44 740 b 532 -17 44 203 261 -17 b 1019 472 800 -17 1019 203 b 532 961 1019 740 800 961 z m 532 749 b 808 472 683 749 808 625 b 532 194 808 318 683 194 b 253 472 378 194 253 318 b 532 749 253 625 378 749 z "},"Ŏ":{"ha":1064,"x_min":0,"x_max":0,"o":"m 785 1221 l 644 1289 b 543 1215 624 1246 586 1215 b 444 1289 503 1215 467 1246 l 306 1221 b 540 1051 340 1124 435 1051 b 785 1221 656 1051 749 1124 z m 532 961 b 44 472 261 961 44 740 b 532 -17 44 203 261 -17 b 1019 472 800 -17 1019 203 b 532 961 1019 740 800 961 z m 532 749 b 808 472 683 749 808 625 b 532 194 808 318 683 194 b 253 472 378 194 253 318 b 532 749 253 625 378 749 z "},"Ô":{"ha":1064,"x_min":0,"x_max":0,"o":"m 547 1208 l 776 1056 l 875 1175 l 547 1372 l 219 1175 l 318 1056 z m 532 961 b 44 472 261 961 44 740 b 532 -17 44 203 261 -17 b 1019 472 800 -17 1019 203 b 532 961 1019 740 800 961 z m 532 749 b 808 472 683 749 808 625 b 532 194 808 318 683 194 b 253 472 378 194 253 318 b 532 749 253 625 378 749 z "},"Ö":{"ha":1064,"x_min":0,"x_max":0,"o":"m 351 1335 b 222 1201 281 1335 222 1275 b 351 1072 222 1132 281 1072 b 483 1201 425 1072 483 1132 b 351 1335 483 1275 425 1335 z m 740 1335 b 611 1201 671 1335 611 1275 b 740 1072 611 1132 671 1072 b 874 1201 814 1072 874 1132 b 740 1335 874 1275 814 1335 z m 532 961 b 44 472 261 961 44 740 b 532 -17 44 203 261 -17 b 1019 472 800 -17 1019 203 b 532 961 1019 740 800 961 z m 532 749 b 808 472 683 749 808 625 b 532 194 808 318 683 194 b 253 472 378 194 253 318 b 532 749 253 625 378 749 z "},"Ò":{"ha":1064,"x_min":0,"x_max":0,"o":"m 319 1183 l 763 1046 l 836 1188 l 397 1369 z m 532 961 b 44 472 261 961 44 740 b 532 -17 44 203 261 -17 b 1019 472 800 -17 1019 203 b 532 961 1019 740 800 961 z m 532 749 b 808 472 683 749 808 625 b 532 194 808 318 683 194 b 253 472 378 194 253 318 b 532 749 253 625 378 749 z "},"Ő":{"ha":1064,"x_min":0,"x_max":0,"o":"m 250 1086 l 400 1064 l 642 1342 l 446 1361 z m 610 1086 l 760 1064 l 1001 1342 l 806 1361 z m 532 961 b 44 472 261 961 44 740 b 532 -17 44 203 261 -17 b 1019 472 800 -17 1019 203 b 532 961 1019 740 800 961 z m 532 749 b 808 472 683 749 808 625 b 532 194 808 318 683 194 b 253 472 378 194 253 318 b 532 749 253 625 378 749 z "},"Ō":{"ha":1064,"x_min":0,"x_max":0,"o":"m 856 1069 l 856 1253 l 235 1253 l 235 1069 z m 532 961 b 44 472 261 961 44 740 b 532 -17 44 203 261 -17 b 1019 472 800 -17 1019 203 b 532 961 1019 740 800 961 z m 532 749 b 808 472 683 749 808 625 b 532 194 808 318 683 194 b 253 472 378 194 253 318 b 532 749 253 625 378 749 z "},"Ø":{"ha":1136,"x_min":0,"x_max":0,"o":"m 997 740 l 1072 817 l 908 978 l 826 894 b 567 961 751 936 664 961 b 58 474 271 961 58 736 b 142 203 58 375 88 282 l 65 128 l 229 -33 l 308 50 b 567 -17 383 7 471 -17 b 1078 474 863 -17 1078 213 b 997 740 1078 572 1050 663 z m 286 474 b 567 749 286 631 401 749 b 668 733 604 749 636 744 l 307 371 b 286 474 293 403 286 438 z m 567 194 b 469 210 532 194 500 199 l 831 575 b 849 474 842 544 849 510 b 567 194 849 325 735 194 z "},"Ǿ":{"ha":1136,"x_min":0,"x_max":0,"o":"m 314 1196 l 382 1058 l 825 1196 l 753 1378 z m 997 740 l 1072 817 l 908 978 l 826 894 b 567 961 751 936 664 961 b 58 474 271 961 58 736 b 142 203 58 375 88 282 l 65 128 l 229 -33 l 308 50 b 567 -17 383 7 471 -17 b 1078 474 863 -17 1078 213 b 997 740 1078 572 1050 663 z m 286 474 b 567 749 286 631 401 749 b 668 733 604 749 636 744 l 307 371 b 286 474 293 403 286 438 z m 567 194 b 469 210 532 194 500 199 l 831 575 b 849 474 842 544 849 510 b 567 194 849 325 735 194 z "},"Õ":{"ha":1064,"x_min":0,"x_max":0,"o":"m 396 1321 b 218 1260 301 1321 219 1263 l 261 1088 b 399 1122 261 1088 324 1122 b 669 1065 500 1122 564 1065 b 876 1157 796 1065 876 1151 l 819 1304 b 669 1261 819 1304 768 1261 b 396 1321 576 1261 515 1321 z m 532 961 b 44 472 261 961 44 740 b 532 -17 44 203 261 -17 b 1019 472 800 -17 1019 203 b 532 961 1019 740 800 961 z m 532 749 b 808 472 683 749 808 625 b 532 194 808 318 683 194 b 253 472 378 194 253 318 b 532 749 253 625 378 749 z "},"Œ":{"ha":1628,"x_min":0,"x_max":0,"o":"m 1549 733 l 1549 944 l 824 944 l 824 872 b 546 961 743 928 650 961 b 58 472 275 961 58 740 b 546 -17 58 203 275 -17 b 824 71 650 -17 743 15 l 824 0 l 1549 0 l 1549 211 l 1053 211 l 1053 374 l 1467 374 l 1467 571 l 1053 571 l 1053 733 z m 546 194 b 267 472 392 194 267 318 b 546 749 267 625 392 749 b 822 472 697 749 822 625 b 546 194 822 318 697 194 z "},"P":{"ha":963,"x_min":0,"x_max":0,"o":"m 535 944 l 99 944 l 99 0 l 328 0 l 328 214 l 533 214 b 893 581 775 214 893 394 b 535 944 893 764 776 944 z m 508 733 b 663 581 600 732 663 682 b 508 424 663 478 600 424 l 328 424 l 328 733 z "},"Þ":{"ha":944,"x_min":0,"x_max":0,"o":"m 333 944 l 106 944 l 106 0 l 333 0 l 333 186 l 543 186 b 889 511 763 186 889 328 b 543 836 889 694 763 836 l 333 836 z m 518 628 b 658 511 596 626 658 588 b 518 394 658 435 596 394 l 333 394 l 333 628 z "},"Q":{"ha":1107,"x_min":0,"x_max":0,"o":"m 1051 475 b 554 961 1051 736 838 961 b 58 475 271 961 58 736 b 554 -17 58 214 271 -17 b 763 31 631 -17 700 1 l 846 -62 l 1000 85 l 935 161 b 1051 475 1008 246 1051 357 z m 286 475 b 554 750 286 632 401 750 b 822 475 708 750 822 632 b 783 331 822 424 808 371 l 639 499 l 479 350 l 611 201 b 554 194 593 197 574 194 b 286 475 401 194 286 325 z "},"R":{"ha":982,"x_min":0,"x_max":0,"o":"m 563 944 l 106 944 l 106 0 l 333 0 l 333 235 l 500 235 l 642 0 l 925 0 l 731 285 b 899 590 832 339 899 454 b 563 944 899 796 754 944 z m 531 733 b 669 590 607 733 669 668 b 529 446 669 511 607 446 l 333 446 l 333 733 z "},"Ŕ":{"ha":982,"x_min":0,"x_max":0,"o":"m 240 1176 l 308 1039 l 751 1176 l 679 1358 z m 563 944 l 106 944 l 106 0 l 333 0 l 333 235 l 500 235 l 642 0 l 925 0 l 731 285 b 899 590 832 339 899 454 b 563 944 899 796 754 944 z m 531 733 b 669 590 607 733 669 668 b 529 446 669 511 607 446 l 333 446 l 333 733 z "},"Ř":{"ha":982,"x_min":0,"x_max":0,"o":"m 675 1393 l 460 1247 l 244 1393 l 146 1267 l 460 1068 l 774 1267 z m 563 944 l 106 944 l 106 0 l 333 0 l 333 235 l 500 235 l 642 0 l 925 0 l 731 285 b 899 590 832 339 899 454 b 563 944 899 796 754 944 z m 531 733 b 669 590 607 733 669 668 b 529 446 669 511 607 446 l 333 446 l 333 733 z "},"Ŗ":{"ha":982,"x_min":0,"x_max":0,"o":"m 563 944 l 106 944 l 106 0 l 333 0 l 333 235 l 500 235 l 642 0 l 925 0 l 731 285 b 899 590 832 339 899 454 b 563 944 899 796 754 944 z m 531 733 b 669 590 607 733 669 668 b 529 446 669 511 607 446 l 333 446 l 333 733 z m 639 -324 l 393 -583 l 256 -475 l 449 -175 z "},"S":{"ha":922,"x_min":0,"x_max":0,"o":"m 461 961 b 76 661 246 961 76 833 b 467 365 76 451 325 399 b 633 264 554 344 633 324 b 494 181 633 224 596 181 b 289 331 307 181 289 331 l 63 331 b 482 -17 63 183 186 -17 b 861 276 703 -17 861 96 b 503 574 861 485 651 535 b 307 672 369 608 307 626 b 458 757 307 726 390 757 b 611 646 556 757 611 693 l 838 646 b 461 961 838 793 707 961 z "},"Ś":{"ha":922,"x_min":0,"x_max":0,"o":"m 214 1176 l 282 1039 l 725 1176 l 653 1358 z m 461 961 b 76 661 246 961 76 833 b 467 365 76 451 325 399 b 633 264 554 344 633 324 b 494 181 633 224 596 181 b 289 331 307 181 289 331 l 63 331 b 482 -17 63 183 186 -17 b 861 276 703 -17 861 96 b 503 574 861 485 651 535 b 307 672 369 608 307 626 b 458 757 307 726 390 757 b 611 646 556 757 611 693 l 838 646 b 461 961 838 793 707 961 z "},"Š":{"ha":932,"x_min":0,"x_max":0,"o":"m 683 1394 l 468 1249 l 253 1394 l 154 1268 l 468 1069 l 782 1268 z m 458 961 b 76 668 246 961 76 829 b 467 365 76 454 300 406 b 633 265 554 344 633 324 b 486 181 633 224 601 181 b 289 331 313 181 289 331 l 63 331 b 472 -17 63 183 192 -17 b 861 279 708 -17 861 96 b 503 574 861 490 633 539 b 307 668 421 596 307 619 b 458 757 307 729 390 757 b 611 646 556 757 611 693 l 838 646 b 458 961 838 793 708 961 z "},"Ş":{"ha":932,"x_min":0,"x_max":0,"o":"m 861 276 b 503 574 861 485 651 535 b 307 672 369 608 307 626 b 458 757 307 726 390 757 b 611 646 556 757 611 693 l 838 646 b 461 961 838 793 707 961 b 76 661 246 961 76 833 b 467 365 76 451 325 399 b 633 264 554 344 633 324 b 494 181 633 224 596 181 b 289 331 307 181 289 331 l 63 331 b 367 -6 63 204 154 39 l 256 -175 l 458 -260 l 588 -7 b 861 276 751 24 861 126 z "},"Ș":{"ha":922,"x_min":0,"x_max":0,"o":"m 461 961 b 76 661 246 961 76 833 b 467 365 76 451 325 399 b 633 264 554 344 633 324 b 494 181 633 224 596 181 b 289 331 307 181 289 331 l 63 331 b 482 -17 63 183 186 -17 b 861 276 703 -17 861 96 b 503 574 861 485 651 535 b 307 672 369 608 307 626 b 458 757 307 726 390 757 b 611 646 556 757 611 693 l 838 646 b 461 961 838 793 707 961 z m 642 -324 l 396 -583 l 258 -475 l 451 -175 z "},"T":{"ha":1000,"x_min":0,"x_max":0,"o":"m 950 944 l 50 944 l 50 733 l 385 733 l 385 0 l 615 0 l 615 733 l 950 733 z "},"Ŧ":{"ha":1000,"x_min":0,"x_max":0,"o":"m 950 733 l 950 944 l 50 944 l 50 733 l 385 733 l 385 589 l 132 589 l 132 392 l 385 392 l 385 0 l 615 0 l 615 392 l 865 392 l 865 589 l 615 589 l 615 733 z "},"Ť":{"ha":1000,"x_min":0,"x_max":0,"o":"m 717 1393 l 501 1247 l 286 1393 l 188 1267 l 501 1068 l 815 1267 z m 950 944 l 50 944 l 50 733 l 385 733 l 385 0 l 615 0 l 615 733 l 950 733 z "},"Ţ":{"ha":1000,"x_min":0,"x_max":0,"o":"m 50 944 l 50 733 l 385 733 l 385 0 l 239 -300 l 442 -383 l 615 0 l 615 733 l 950 733 l 950 944 z "},"Ț":{"ha":1000,"x_min":0,"x_max":0,"o":"m 950 944 l 50 944 l 50 733 l 385 733 l 385 0 l 615 0 l 615 733 l 950 733 z m 668 -306 l 422 -565 l 285 -457 l 478 -157 z "},"U":{"ha":1028,"x_min":0,"x_max":0,"o":"m 969 944 l 739 944 l 739 485 b 508 194 739 303 650 194 b 286 485 364 194 286 303 l 286 944 l 58 944 l 58 485 b 508 -17 58 172 240 -17 b 969 485 772 -17 969 172 z "},"Ú":{"ha":1028,"x_min":0,"x_max":0,"o":"m 304 1176 l 372 1039 l 815 1176 l 743 1358 z m 969 944 l 739 944 l 739 485 b 508 194 739 303 650 194 b 286 485 364 194 286 303 l 286 944 l 58 944 l 58 485 b 508 -17 58 172 240 -17 b 969 485 772 -17 969 172 z "},"Ŭ":{"ha":1028,"x_min":0,"x_max":0,"o":"m 776 1221 l 636 1289 b 535 1215 615 1246 578 1215 b 436 1289 494 1215 458 1246 l 297 1221 b 532 1051 332 1124 426 1051 b 776 1221 647 1051 740 1124 z m 969 944 l 739 944 l 739 485 b 508 194 739 303 650 194 b 286 485 364 194 286 303 l 286 944 l 58 944 l 58 485 b 508 -17 58 172 240 -17 b 969 485 772 -17 969 172 z "},"Û":{"ha":1028,"x_min":0,"x_max":0,"o":"m 539 1208 l 768 1056 l 867 1175 l 539 1372 l 211 1175 l 310 1056 z m 969 944 l 739 944 l 739 485 b 508 194 739 303 650 194 b 286 485 364 194 286 303 l 286 944 l 58 944 l 58 485 b 508 -17 58 172 240 -17 b 969 485 772 -17 969 172 z "},"Ü":{"ha":1028,"x_min":0,"x_max":0,"o":"m 343 1335 b 214 1201 272 1335 214 1275 b 343 1072 214 1132 272 1072 b 475 1201 417 1072 475 1132 b 343 1335 475 1275 417 1335 z m 732 1335 b 603 1201 663 1335 603 1275 b 732 1072 603 1132 663 1072 b 865 1201 806 1072 865 1132 b 732 1335 865 1275 806 1335 z m 969 944 l 739 944 l 739 485 b 508 194 739 303 650 194 b 286 485 364 194 286 303 l 286 944 l 58 944 l 58 485 b 508 -17 58 172 240 -17 b 969 485 772 -17 969 172 z "},"Ù":{"ha":1028,"x_min":0,"x_max":0,"o":"m 257 1183 l 700 1046 l 774 1188 l 335 1369 z m 969 944 l 739 944 l 739 485 b 508 194 739 303 650 194 b 286 485 364 194 286 303 l 286 944 l 58 944 l 58 485 b 508 -17 58 172 240 -17 b 969 485 772 -17 969 172 z "},"Ű":{"ha":1028,"x_min":0,"x_max":0,"o":"m 210 1086 l 360 1064 l 601 1342 l 406 1361 z m 569 1086 l 719 1064 l 961 1342 l 765 1361 z m 969 944 l 739 944 l 739 485 b 508 194 739 303 650 194 b 286 485 364 194 286 303 l 286 944 l 58 944 l 58 485 b 508 -17 58 172 240 -17 b 969 485 772 -17 969 172 z "},"Ū":{"ha":1028,"x_min":0,"x_max":0,"o":"m 847 1069 l 847 1253 l 226 1253 l 226 1069 z m 969 944 l 739 944 l 739 485 b 508 194 739 303 650 194 b 286 485 364 194 286 303 l 286 944 l 58 944 l 58 485 b 508 -17 58 172 240 -17 b 969 485 772 -17 969 172 z "},"Ų":{"ha":1075,"x_min":0,"x_max":0,"o":"m 969 944 l 739 944 l 739 485 b 508 194 739 303 650 194 b 286 485 364 194 286 303 l 286 944 l 58 944 l 58 485 b 508 -17 58 172 240 -17 b 594 -10 538 -17 567 -14 b 574 -111 582 -43 574 -76 b 751 -290 574 -233 690 -290 l 847 -189 b 771 -62 846 -189 771 -168 b 896 161 771 67 896 161 l 888 179 b 969 485 939 260 969 363 z "},"Ů":{"ha":1028,"x_min":0,"x_max":0,"o":"m 533 1356 b 368 1185 444 1356 368 1279 b 533 1018 368 1094 444 1018 b 704 1185 628 1018 704 1094 b 533 1356 704 1279 628 1356 z m 535 1236 b 586 1186 564 1236 586 1214 b 535 1136 586 1160 564 1136 b 486 1186 508 1136 486 1160 b 535 1236 486 1214 508 1236 z m 969 944 l 739 944 l 739 485 b 508 194 739 303 650 194 b 286 485 364 194 286 303 l 286 944 l 58 944 l 58 485 b 508 -17 58 172 240 -17 b 969 485 772 -17 969 172 z "},"V":{"ha":1181,"x_min":0,"x_max":0,"o":"m 1135 944 l 883 944 l 592 269 l 299 944 l 47 944 l 465 0 l 715 0 z "},"W":{"ha":1663,"x_min":0,"x_max":0,"o":"m 1367 944 l 1147 335 l 956 944 l 707 944 l 492 332 l 296 944 l 53 944 l 367 0 l 603 0 l 825 615 l 1024 0 l 1257 0 l 1611 944 z "},"Ẃ":{"ha":1663,"x_min":0,"x_max":0,"o":"m 1089 1176 l 1017 1358 l 578 1176 l 646 1039 z m 1367 944 l 1147 335 l 956 944 l 707 944 l 492 332 l 296 944 l 53 944 l 367 0 l 603 0 l 825 615 l 1024 0 l 1257 0 l 1611 944 z "},"Ŵ":{"ha":1663,"x_min":0,"x_max":0,"o":"m 831 1208 l 1060 1056 l 1158 1175 l 831 1372 l 503 1175 l 601 1056 z m 1367 944 l 1147 335 l 956 944 l 707 944 l 492 332 l 296 944 l 53 944 l 367 0 l 603 0 l 825 615 l 1024 0 l 1257 0 l 1611 944 z "},"Ẅ":{"ha":1663,"x_min":0,"x_max":0,"o":"m 636 1072 b 768 1201 710 1072 768 1132 b 636 1335 768 1275 710 1335 b 507 1201 565 1335 507 1275 b 636 1072 507 1132 565 1072 z m 1025 1072 b 1158 1201 1099 1072 1158 1132 b 1025 1335 1158 1275 1099 1335 b 896 1201 956 1335 896 1275 b 1025 1072 896 1132 956 1072 z m 1367 944 l 1147 335 l 956 944 l 707 944 l 492 332 l 296 944 l 53 944 l 367 0 l 603 0 l 825 615 l 1024 0 l 1257 0 l 1611 944 z "},"Ẁ":{"ha":1663,"x_min":0,"x_max":0,"o":"m 1085 1188 l 646 1369 l 568 1183 l 1011 1046 z m 1367 944 l 1147 335 l 956 944 l 707 944 l 492 332 l 296 944 l 53 944 l 367 0 l 603 0 l 825 615 l 1024 0 l 1257 0 l 1611 944 z "},"X":{"ha":1060,"x_min":0,"x_max":0,"o":"m 229 -15 l 544 299 l 856 -18 l 1021 146 l 706 460 l 1051 800 l 889 961 l 546 625 l 213 961 l 50 799 l 383 463 l 67 150 z "},"Y":{"ha":1154,"x_min":0,"x_max":0,"o":"m 1097 944 l 832 944 l 579 558 l 322 944 l 60 944 l 463 357 l 463 0 l 692 0 l 692 357 z "},"Ý":{"ha":1154,"x_min":0,"x_max":0,"o":"m 324 1176 l 392 1039 l 835 1176 l 763 1358 z m 1097 944 l 832 944 l 579 558 l 322 944 l 60 944 l 463 357 l 463 0 l 692 0 l 692 357 z "},"Ŷ":{"ha":1154,"x_min":0,"x_max":0,"o":"m 581 1208 l 810 1056 l 908 1175 l 581 1372 l 253 1175 l 351 1056 z m 1097 944 l 832 944 l 579 558 l 322 944 l 60 944 l 463 357 l 463 0 l 692 0 l 692 357 z "},"Ÿ":{"ha":1154,"x_min":0,"x_max":0,"o":"m 383 1335 b 254 1201 313 1335 254 1275 b 383 1072 254 1132 313 1072 b 515 1201 457 1072 515 1132 b 383 1335 515 1275 457 1335 z m 772 1335 b 643 1201 703 1335 643 1275 b 772 1072 643 1132 703 1072 b 906 1201 846 1072 906 1132 b 772 1335 906 1275 846 1335 z m 1097 944 l 832 944 l 579 558 l 322 944 l 60 944 l 463 357 l 463 0 l 692 0 l 692 357 z "},"Ỳ":{"ha":1154,"x_min":0,"x_max":0,"o":"m 318 1183 l 761 1046 l 835 1188 l 396 1369 z m 1097 944 l 832 944 l 579 558 l 322 944 l 60 944 l 463 357 l 463 0 l 692 0 l 692 357 z "},"Z":{"ha":1111,"x_min":0,"x_max":0,"o":"m 996 944 l 101 944 l 101 733 l 676 733 l 65 204 l 65 0 l 1006 0 l 1006 211 l 401 211 l 996 743 z "},"Ź":{"ha":1111,"x_min":0,"x_max":0,"o":"m 301 1176 l 369 1039 l 813 1176 l 740 1358 z m 996 944 l 101 944 l 101 733 l 676 733 l 65 204 l 65 0 l 1006 0 l 1006 211 l 401 211 l 996 743 z "},"Ž":{"ha":1111,"x_min":0,"x_max":0,"o":"m 774 1393 l 558 1247 l 343 1393 l 244 1267 l 558 1068 l 872 1267 z m 996 944 l 101 944 l 101 733 l 676 733 l 65 204 l 65 0 l 1006 0 l 1006 211 l 401 211 l 996 743 z "},"Ż":{"ha":1111,"x_min":0,"x_max":0,"o":"m 565 1328 b 436 1194 494 1328 436 1268 b 565 1065 436 1125 494 1065 b 697 1194 639 1065 697 1125 b 565 1328 697 1268 639 1328 z m 996 944 l 101 944 l 101 733 l 676 733 l 65 204 l 65 0 l 1006 0 l 1006 211 l 401 211 l 996 743 z "},"a":{"ha":1163,"x_min":0,"x_max":0,"o":"m 871 0 l 1114 0 l 708 944 l 454 944 l 50 0 l 292 0 l 354 147 l 810 147 z m 433 333 l 583 686 l 731 333 z "},"á":{"ha":1167,"x_min":0,"x_max":0,"o":"m 828 1176 l 756 1358 l 317 1176 l 385 1039 z m 871 0 l 1114 0 l 708 944 l 454 944 l 50 0 l 292 0 l 354 147 l 810 147 z m 433 333 l 583 686 l 731 333 z "},"ă":{"ha":1167,"x_min":0,"x_max":0,"o":"m 579 1054 b 824 1224 694 1054 788 1126 l 683 1292 b 582 1218 663 1249 625 1218 b 483 1292 542 1218 506 1249 l 344 1224 b 579 1054 379 1126 474 1054 z m 871 0 l 1114 0 l 708 944 l 454 944 l 50 0 l 292 0 l 354 147 l 810 147 z m 433 333 l 583 686 l 731 333 z "},"â":{"ha":1167,"x_min":0,"x_max":0,"o":"m 585 1211 l 814 1058 l 913 1178 l 585 1375 l 257 1178 l 356 1058 z m 871 0 l 1114 0 l 708 944 l 454 944 l 50 0 l 292 0 l 354 147 l 810 147 z m 433 333 l 583 686 l 731 333 z "},"ä":{"ha":1167,"x_min":0,"x_max":0,"o":"m 388 1075 b 519 1204 461 1075 519 1135 b 388 1338 519 1278 461 1338 b 258 1204 317 1338 258 1278 b 388 1075 258 1135 317 1075 z m 776 1075 b 910 1204 850 1075 910 1135 b 776 1338 910 1278 850 1338 b 647 1204 707 1338 647 1278 b 776 1075 647 1135 707 1075 z m 874 0 l 1117 0 l 711 947 l 456 947 l 50 0 l 293 0 l 356 147 l 813 147 z m 435 335 l 585 689 l 733 335 z "},"à":{"ha":1167,"x_min":0,"x_max":0,"o":"m 839 1188 l 400 1369 l 322 1183 l 765 1046 z m 871 0 l 1114 0 l 708 944 l 454 944 l 50 0 l 292 0 l 354 147 l 810 147 z m 433 333 l 583 686 l 731 333 z "},"ā":{"ha":1167,"x_min":0,"x_max":0,"o":"m 892 1253 l 271 1253 l 271 1069 l 892 1069 z m 871 0 l 1114 0 l 708 944 l 454 944 l 50 0 l 292 0 l 354 147 l 810 147 z m 433 333 l 583 686 l 731 333 z "},"ą":{"ha":1167,"x_min":0,"x_max":0,"o":"m 992 -117 b 1117 0 992 -37 1117 0 l 1043 167 l 708 944 l 454 944 l 50 0 l 292 0 l 354 147 l 810 147 l 864 15 b 793 -143 824 -33 793 -87 b 960 -306 793 -235 881 -306 l 1068 -189 b 992 -117 1067 -189 992 -168 z m 433 333 l 583 686 l 731 333 z "},"å":{"ha":1163,"x_min":0,"x_max":0,"o":"m 581 1219 b 414 1050 490 1219 414 1144 b 471 926 414 1001 436 956 l 50 0 l 292 0 l 354 147 l 808 147 l 871 0 l 1114 0 l 692 926 b 750 1050 726 956 750 1001 b 581 1219 750 1144 675 1219 z m 582 1101 b 632 1051 610 1101 632 1079 b 582 1003 632 1025 610 1003 b 532 1051 556 1003 532 1025 b 582 1101 532 1079 556 1101 z m 582 688 l 729 333 l 433 333 z "},"ǻ":{"ha":1163,"x_min":0,"x_max":0,"o":"m 614 1311 b 471 1176 614 1311 518 1221 b 414 1050 438 1146 414 1101 b 471 926 414 1001 436 956 l 50 0 l 292 0 l 354 147 l 808 147 l 871 0 l 1114 0 l 692 926 b 750 1050 726 956 750 1001 b 678 1189 750 1108 721 1158 l 719 1228 z m 582 1101 b 632 1051 610 1101 632 1079 b 582 1003 632 1025 610 1003 b 532 1051 556 1003 532 1025 b 582 1101 532 1079 556 1101 z m 582 688 l 729 333 l 433 333 z "},"ã":{"ha":1163,"x_min":0,"x_max":0,"o":"m 435 1124 b 706 1067 536 1124 600 1067 b 913 1158 832 1067 913 1153 l 856 1306 b 706 1263 856 1306 804 1263 b 432 1322 613 1263 551 1322 b 254 1261 338 1322 256 1264 l 297 1089 b 435 1124 297 1089 360 1124 z m 871 0 l 1114 0 l 708 944 l 454 944 l 50 0 l 292 0 l 354 147 l 810 147 z m 433 333 l 583 686 l 731 333 z "},"æ":{"ha":1547,"x_min":0,"x_max":0,"o":"m 985 733 l 1481 733 l 1481 944 l 504 944 l 50 0 l 286 0 l 465 374 l 754 374 l 754 0 l 1481 0 l 1481 211 l 985 211 l 985 374 l 1399 374 l 1399 571 l 985 571 z m 754 733 l 754 571 l 560 571 l 639 733 z "},"ǽ":{"ha":1560,"x_min":0,"x_max":0,"o":"m 724 1176 l 792 1039 l 1235 1176 l 1163 1358 z m 985 733 l 1481 733 l 1481 944 l 504 944 l 50 0 l 286 0 l 465 374 l 754 374 l 754 0 l 1481 0 l 1481 211 l 985 211 l 985 374 l 1399 374 l 1399 571 l 985 571 z m 754 733 l 754 571 l 560 571 l 639 733 z "},"b":{"ha":982,"x_min":0,"x_max":0,"o":"m 786 504 b 875 685 807 519 875 588 b 515 944 875 836 789 944 l 106 944 l 106 0 l 571 0 b 928 275 829 0 928 121 b 786 504 928 376 878 458 z m 529 553 l 333 553 l 333 750 l 529 750 b 658 656 617 750 658 719 b 529 553 658 582 628 553 z m 682 288 b 544 196 682 226 636 196 l 333 196 l 333 379 l 544 379 b 682 288 635 379 682 357 z "},"c":{"ha":1060,"x_min":0,"x_max":0,"o":"m 819 340 b 571 197 774 257 688 197 b 290 479 406 197 290 329 b 571 756 290 635 406 756 b 822 613 690 756 778 699 l 1015 725 b 571 961 931 867 772 961 b 60 479 275 961 60 742 b 571 -17 60 200 275 -17 b 1013 229 771 -17 928 88 z "},"ć":{"ha":1060,"x_min":0,"x_max":0,"o":"m 297 1176 l 365 1039 l 808 1176 l 736 1358 z m 819 340 b 571 197 774 257 688 197 b 290 479 406 197 290 329 b 571 756 290 635 406 756 b 822 613 690 756 778 699 l 1015 725 b 571 961 931 867 772 961 b 60 479 275 961 60 742 b 571 -17 60 200 275 -17 b 1013 229 771 -17 928 88 z "},"č":{"ha":1060,"x_min":0,"x_max":0,"o":"m 753 1393 l 538 1247 l 322 1393 l 224 1267 l 538 1068 l 851 1267 z m 819 340 b 571 197 774 257 688 197 b 290 479 406 197 290 329 b 571 756 290 635 406 756 b 822 613 690 756 778 699 l 1015 725 b 571 961 931 867 772 961 b 60 479 275 961 60 742 b 571 -17 60 200 275 -17 b 1013 229 771 -17 928 88 z "},"ç":{"ha":1057,"x_min":0,"x_max":0,"o":"m 819 340 b 571 197 774 257 688 197 b 290 479 406 197 290 329 b 571 756 290 635 406 756 b 822 613 690 756 778 699 l 1015 725 b 571 961 931 867 772 961 b 60 479 275 961 60 742 b 571 -17 60 200 275 -17 b 1013 229 771 -17 928 88 z m 260 -151 l 260 -326 l 801 -326 l 801 -151 z "},"ċ":{"ha":1060,"x_min":0,"x_max":0,"o":"m 533 1328 b 404 1194 463 1328 404 1268 b 533 1065 404 1125 463 1065 b 665 1194 607 1065 665 1125 b 533 1328 665 1268 607 1328 z m 819 340 b 571 197 774 257 688 197 b 290 479 406 197 290 329 b 571 756 290 635 406 756 b 822 613 690 756 778 699 l 1015 725 b 571 961 931 867 772 961 b 60 479 275 961 60 742 b 571 -17 60 200 275 -17 b 1013 229 771 -17 928 88 z "},"d":{"ha":1076,"x_min":0,"x_max":0,"o":"m 524 944 l 106 943 l 106 0 l 524 0 b 1022 474 818 0 1022 199 b 524 944 1022 746 835 946 z m 333 733 l 524 733 b 792 474 685 733 792 643 b 524 211 792 315 682 211 l 333 211 z "},"ð":{"ha":1200,"x_min":0,"x_max":0,"o":"m 643 944 l 225 944 l 225 571 l 50 571 l 50 374 l 225 374 l 225 0 l 643 0 b 1142 474 938 0 1142 199 b 643 944 1142 746 954 944 z m 643 733 b 911 474 804 733 911 643 b 643 211 911 315 801 211 l 454 211 l 454 374 l 731 374 l 731 571 l 454 571 l 454 733 z "},"ď":{"ha":1076,"x_min":0,"x_max":0,"o":"m 714 1394 l 499 1249 l 283 1394 l 185 1268 l 499 1069 l 813 1268 z m 524 944 l 106 944 l 106 0 l 524 0 b 1022 474 818 0 1022 199 b 524 944 1022 746 835 944 z m 333 733 l 524 733 b 792 474 685 733 792 643 b 524 211 792 315 682 211 l 333 211 z "},"đ":{"ha":1200,"x_min":0,"x_max":0,"o":"m 643 944 l 225 944 l 225 571 l 50 571 l 50 374 l 225 374 l 225 0 l 643 0 b 1142 474 938 0 1142 199 b 643 944 1142 746 954 944 z m 643 733 b 911 474 804 733 911 643 b 643 211 911 315 801 211 l 454 211 l 454 374 l 731 374 l 731 571 l 454 571 l 454 733 z "},"e":{"ha":908,"x_min":0,"x_max":0,"o":"m 106 944 l 106 0 l 829 0 l 829 211 l 333 211 l 333 374 l 747 374 l 747 571 l 333 571 l 333 733 l 829 733 l 829 944 z "},"é":{"ha":908,"x_min":0,"x_max":0,"o":"m 215 1176 l 283 1039 l 726 1176 l 654 1358 z m 106 944 l 106 0 l 829 0 l 829 211 l 333 211 l 333 374 l 747 374 l 747 571 l 333 571 l 333 733 l 829 733 l 829 944 z "},"ĕ":{"ha":908,"x_min":0,"x_max":0,"o":"m 710 1221 l 569 1289 b 468 1215 549 1246 511 1215 b 369 1289 428 1215 392 1246 l 231 1221 b 465 1051 265 1124 360 1051 b 710 1221 581 1051 674 1124 z m 106 944 l 106 0 l 829 0 l 829 211 l 333 211 l 333 374 l 747 374 l 747 571 l 333 571 l 333 733 l 829 733 l 829 944 z "},"ě":{"ha":908,"x_min":0,"x_max":0,"o":"m 700 1393 l 485 1247 l 269 1393 l 171 1267 l 485 1068 l 799 1267 z m 106 944 l 106 0 l 829 0 l 829 211 l 333 211 l 333 374 l 747 374 l 747 571 l 333 571 l 333 733 l 829 733 l 829 944 z "},"ê":{"ha":908,"x_min":0,"x_max":0,"o":"m 456 1208 l 685 1056 l 783 1175 l 456 1372 l 128 1175 l 226 1056 z m 106 944 l 106 0 l 829 0 l 829 211 l 333 211 l 333 374 l 747 374 l 747 571 l 333 571 l 333 733 l 829 733 l 829 944 z "},"ë":{"ha":908,"x_min":0,"x_max":0,"o":"m 254 1335 b 125 1201 183 1335 125 1275 b 254 1072 125 1132 183 1072 b 386 1201 328 1072 386 1132 b 254 1335 386 1275 328 1335 z m 643 1335 b 514 1201 574 1335 514 1275 b 643 1072 514 1132 574 1072 b 776 1201 717 1072 776 1132 b 643 1335 776 1275 717 1335 z m 106 944 l 106 0 l 829 0 l 829 211 l 333 211 l 333 374 l 747 374 l 747 571 l 333 571 l 333 733 l 829 733 l 829 944 z "},"ė":{"ha":908,"x_min":0,"x_max":0,"o":"m 464 1328 b 335 1194 393 1328 335 1268 b 464 1065 335 1125 393 1065 b 596 1194 538 1065 596 1125 b 464 1328 596 1268 538 1328 z m 106 944 l 106 0 l 829 0 l 829 211 l 333 211 l 333 374 l 747 374 l 747 571 l 333 571 l 333 733 l 829 733 l 829 944 z "},"è":{"ha":908,"x_min":0,"x_max":0,"o":"m 214 1183 l 657 1046 l 731 1188 l 292 1369 z m 106 944 l 106 0 l 829 0 l 829 211 l 333 211 l 333 374 l 747 374 l 747 571 l 333 571 l 333 733 l 829 733 l 829 944 z "},"ē":{"ha":908,"x_min":0,"x_max":0,"o":"m 781 1069 l 781 1253 l 160 1253 l 160 1069 z m 106 944 l 106 0 l 829 0 l 829 211 l 333 211 l 333 374 l 747 374 l 747 571 l 333 571 l 333 733 l 829 733 l 829 944 z "},"ę":{"ha":908,"x_min":0,"x_max":0,"o":"m 829 733 l 829 944 l 106 944 l 106 0 l 540 0 b 506 -111 519 -29 506 -67 b 683 -290 506 -233 622 -290 l 779 -189 b 703 -117 778 -189 703 -168 b 828 0 703 -37 828 0 l 829 0 l 829 211 l 333 211 l 333 374 l 747 374 l 747 571 l 333 571 l 333 733 z "},"f":{"ha":901,"x_min":0,"x_max":0,"o":"m 829 944 l 106 944 l 106 0 l 333 0 l 333 307 l 747 307 l 747 517 l 333 517 l 333 733 l 829 733 z "},"g":{"ha":1072,"x_min":0,"x_max":0,"o":"m 572 961 b 60 472 275 961 60 735 b 574 -17 60 218 261 -17 b 1006 192 850 -17 999 178 l 1006 542 l 517 542 l 517 367 l 804 367 l 804 275 b 572 196 754 228 674 196 b 289 475 407 196 289 325 b 569 747 289 632 404 747 b 799 654 678 747 751 714 l 996 754 b 572 961 901 879 754 961 z "},"ğ":{"ha":1072,"x_min":0,"x_max":0,"o":"m 771 1221 l 631 1289 b 529 1215 610 1246 572 1215 b 431 1289 489 1215 453 1246 l 292 1221 b 526 1051 326 1124 421 1051 b 771 1221 642 1051 735 1124 z m 572 961 b 60 472 275 961 60 735 b 574 -17 60 218 261 -17 b 1006 192 850 -17 999 178 l 1006 542 l 517 542 l 517 367 l 804 367 l 804 275 b 572 196 754 228 674 196 b 289 475 407 196 289 325 b 569 747 289 632 404 747 b 799 654 678 747 751 714 l 996 754 b 572 961 901 879 754 961 z "},"ģ":{"ha":1072,"x_min":0,"x_max":0,"o":"m 572 961 b 60 472 275 961 60 735 b 574 -17 60 218 261 -17 b 1006 192 850 -17 999 178 l 1006 542 l 517 542 l 517 367 l 804 367 l 804 275 b 572 196 754 228 674 196 b 289 475 407 196 289 325 b 569 747 289 632 404 747 b 799 654 678 747 751 714 l 996 754 b 572 961 901 879 754 961 z m 725 -324 l 479 -583 l 342 -475 l 535 -175 z "},"ġ":{"ha":1072,"x_min":0,"x_max":0,"o":"m 531 1328 b 401 1194 460 1328 401 1268 b 531 1065 401 1125 460 1065 b 663 1194 604 1065 663 1125 b 531 1328 663 1268 604 1328 z m 572 961 b 60 472 275 961 60 735 b 574 -17 60 218 261 -17 b 1006 192 850 -17 999 178 l 1006 542 l 517 542 l 517 367 l 804 367 l 804 275 b 572 196 754 228 674 196 b 289 475 407 196 289 325 b 569 747 289 632 404 747 b 799 654 678 747 751 714 l 996 754 b 572 961 901 879 754 961 z "},"h":{"ha":1083,"x_min":0,"x_max":0,"o":"m 978 944 l 749 944 l 749 578 l 333 578 l 333 944 l 106 944 l 106 0 l 333 0 l 333 367 l 749 367 l 749 0 l 978 0 z "},"ħ":{"ha":1233,"x_min":0,"x_max":0,"o":"m 1054 944 l 825 944 l 825 815 l 410 815 l 410 944 l 182 944 l 182 815 l 42 815 l 42 646 l 182 646 l 182 0 l 410 0 l 410 367 l 825 367 l 825 0 l 1054 0 l 1054 646 l 1192 646 l 1192 815 l 1054 815 z m 825 646 l 825 578 l 410 578 l 410 646 z "},"i":{"ha":439,"x_min":0,"x_max":0,"o":"m 333 944 l 106 944 l 106 0 l 333 0 z "},"í":{"ha":439,"x_min":0,"x_max":0,"o":"m -47 1176 l 21 1039 l 464 1176 l 392 1358 z m 333 944 l 106 944 l 106 0 l 333 0 z "},"ĭ":{"ha":439,"x_min":0,"x_max":0,"o":"m 458 1221 l 318 1289 b 217 1215 297 1246 260 1215 b 118 1289 176 1215 140 1246 l -21 1221 b 214 1051 14 1124 108 1051 b 458 1221 329 1051 422 1124 z m 333 944 l 106 944 l 106 0 l 333 0 z "},"î":{"ha":439,"x_min":0,"x_max":0,"o":"m 213 1208 l 442 1056 l 540 1175 l 213 1372 l -115 1175 l -17 1056 z m 333 944 l 106 944 l 106 0 l 333 0 z "},"ï":{"ha":439,"x_min":0,"x_max":0,"o":"m 10 1335 b -119 1201 -61 1335 -119 1275 b 10 1072 -119 1132 -61 1072 b 142 1201 83 1072 142 1132 b 10 1335 142 1275 83 1335 z m 399 1335 b 269 1201 329 1335 269 1275 b 399 1072 269 1132 329 1072 b 532 1201 472 1072 532 1132 b 399 1335 532 1275 472 1335 z m 333 944 l 106 944 l 106 0 l 333 0 z "},"ì":{"ha":439,"x_min":0,"x_max":0,"o":"m -26 1183 l 417 1046 l 490 1188 l 51 1369 z m 333 944 l 106 944 l 106 0 l 333 0 z "},"ī":{"ha":439,"x_min":0,"x_max":0,"o":"m 531 1069 l 531 1253 l -90 1253 l -90 1069 z m 333 944 l 106 944 l 106 0 l 333 0 z "},"į":{"ha":454,"x_min":0,"x_max":0,"o":"m 225 -117 b 349 0 225 -37 349 0 l 346 8 l 346 944 l 118 944 l 118 56 b 26 -111 67 19 26 -33 b 218 -290 26 -233 157 -290 l 313 -189 b 225 -117 311 -189 225 -168 z "},"j":{"ha":894,"x_min":0,"x_max":0,"o":"m 815 944 l 586 944 l 586 408 b 436 194 586 264 531 194 b 285 399 343 194 285 264 l 57 399 b 436 -17 57 154 225 -17 b 815 408 692 -17 815 154 z "},"k":{"ha":1086,"x_min":0,"x_max":0,"o":"m 981 944 l 694 944 l 333 529 l 333 944 l 106 944 l 106 0 l 333 0 l 333 213 l 496 390 l 754 0 l 1050 0 l 656 564 z "},"ķ":{"ha":1086,"x_min":0,"x_max":0,"o":"m 981 944 l 694 944 l 333 529 l 333 944 l 106 944 l 106 0 l 333 0 l 333 213 l 496 390 l 754 0 l 1050 0 l 656 564 z m 713 -324 l 467 -583 l 329 -475 l 522 -175 z "},"l":{"ha":886,"x_min":0,"x_max":0,"o":"m 333 944 l 106 944 l 106 0 l 829 0 l 829 211 l 333 211 z "},"ĺ":{"ha":886,"x_min":0,"x_max":0,"o":"m -18 1176 l 50 1039 l 493 1176 l 421 1358 z m 333 944 l 106 944 l 106 0 l 829 0 l 829 211 l 333 211 z "},"ľ":{"ha":886,"x_min":0,"x_max":0,"o":"m 333 944 l 106 944 l 106 0 l 829 0 l 829 211 l 333 211 z m 511 592 l 707 557 l 778 911 l 561 944 z "},"ļ":{"ha":886,"x_min":0,"x_max":0,"o":"m 333 944 l 106 944 l 106 0 l 829 0 l 829 211 l 333 211 z m 614 -324 l 368 -583 l 231 -475 l 424 -175 z "},"ŀ":{"ha":886,"x_min":0,"x_max":0,"o":"m 333 944 l 106 944 l 106 0 l 829 0 l 829 211 l 333 211 z m 646 688 b 517 554 575 688 517 628 b 646 425 517 485 575 425 b 778 554 719 425 778 485 b 646 688 778 628 719 688 z "},"ł":{"ha":886,"x_min":0,"x_max":0,"o":"m 333 211 l 333 436 l 547 554 l 547 792 l 333 675 l 333 944 l 106 944 l 106 550 l -12 485 l -12 244 l 106 310 l 106 0 l 829 0 l 829 211 z "},"m":{"ha":1374,"x_min":0,"x_max":0,"o":"m 1269 944 l 1015 944 l 688 251 l 358 944 l 106 944 l 106 0 l 333 0 l 333 482 l 560 0 l 814 0 l 1040 482 l 1040 0 l 1269 0 z "},"n":{"ha":1121,"x_min":0,"x_max":0,"o":"m 1028 944 l 799 944 l 799 368 l 321 944 l 92 944 l 92 0 l 321 0 l 321 578 l 799 0 l 1028 0 z "},"ń":{"ha":1121,"x_min":0,"x_max":0,"o":"m 304 1176 l 372 1039 l 815 1176 l 743 1358 z m 1028 944 l 799 944 l 799 368 l 321 944 l 92 944 l 92 0 l 321 0 l 321 578 l 799 0 l 1028 0 z "},"ň":{"ha":1121,"x_min":0,"x_max":0,"o":"m 753 1393 l 538 1247 l 322 1393 l 224 1267 l 538 1068 l 851 1267 z m 1028 944 l 799 944 l 799 368 l 321 944 l 92 944 l 92 0 l 321 0 l 321 578 l 799 0 l 1028 0 z "},"ņ":{"ha":1121,"x_min":0,"x_max":0,"o":"m 1028 944 l 799 944 l 799 368 l 321 944 l 92 944 l 92 0 l 321 0 l 321 578 l 799 0 l 1028 0 z m 736 -324 l 490 -583 l 353 -475 l 546 -175 z "},"ŋ":{"ha":1147,"x_min":0,"x_max":0,"o":"m 1042 944 l 811 944 l 811 368 l 333 944 l 106 944 l 106 0 l 333 0 l 333 578 l 811 0 b 793 -61 811 0 828 -36 b 683 -40 764 -81 683 -40 l 644 -189 b 933 -224 644 -189 829 -250 b 1042 0 1026 -199 1042 -100 z "},"ñ":{"ha":1121,"x_min":0,"x_max":0,"o":"m 411 1321 b 233 1260 317 1321 235 1263 l 276 1088 b 414 1122 276 1088 339 1122 b 685 1065 515 1122 579 1065 b 892 1157 811 1065 892 1151 l 835 1304 b 685 1261 835 1304 783 1261 b 411 1321 592 1261 531 1321 z m 1028 944 l 799 944 l 799 368 l 321 944 l 92 944 l 92 0 l 321 0 l 321 578 l 799 0 l 1028 0 z "},"o":{"ha":1064,"x_min":0,"x_max":0,"o":"m 532 961 b 44 472 261 961 44 740 b 532 -17 44 203 261 -17 b 1019 472 800 -17 1019 203 b 532 961 1019 740 800 961 z m 532 749 b 808 472 683 749 808 625 b 532 194 808 318 683 194 b 253 472 378 194 253 318 b 532 749 253 625 378 749 z "},"ó":{"ha":1064,"x_min":0,"x_max":0,"o":"m 289 1176 l 357 1039 l 800 1176 l 728 1358 z m 532 961 b 44 472 261 961 44 740 b 532 -17 44 203 261 -17 b 1019 472 800 -17 1019 203 b 532 961 1019 740 800 961 z m 532 749 b 808 472 683 749 808 625 b 532 194 808 318 683 194 b 253 472 378 194 253 318 b 532 749 253 625 378 749 z "},"ŏ":{"ha":1064,"x_min":0,"x_max":0,"o":"m 785 1221 l 644 1289 b 543 1215 624 1246 586 1215 b 444 1289 503 1215 467 1246 l 306 1221 b 540 1051 340 1124 435 1051 b 785 1221 656 1051 749 1124 z m 532 961 b 44 472 261 961 44 740 b 532 -17 44 203 261 -17 b 1019 472 800 -17 1019 203 b 532 961 1019 740 800 961 z m 532 749 b 808 472 683 749 808 625 b 532 194 808 318 683 194 b 253 472 378 194 253 318 b 532 749 253 625 378 749 z "},"ô":{"ha":1064,"x_min":0,"x_max":0,"o":"m 547 1208 l 776 1056 l 875 1175 l 547 1372 l 219 1175 l 318 1056 z m 532 961 b 44 472 261 961 44 740 b 532 -17 44 203 261 -17 b 1019 472 800 -17 1019 203 b 532 961 1019 740 800 961 z m 532 749 b 808 472 683 749 808 625 b 532 194 808 318 683 194 b 253 472 378 194 253 318 b 532 749 253 625 378 749 z "},"ö":{"ha":1064,"x_min":0,"x_max":0,"o":"m 351 1335 b 222 1201 281 1335 222 1275 b 351 1072 222 1132 281 1072 b 483 1201 425 1072 483 1132 b 351 1335 483 1275 425 1335 z m 740 1335 b 611 1201 671 1335 611 1275 b 740 1072 611 1132 671 1072 b 874 1201 814 1072 874 1132 b 740 1335 874 1275 814 1335 z m 532 961 b 44 472 261 961 44 740 b 532 -17 44 203 261 -17 b 1019 472 800 -17 1019 203 b 532 961 1019 740 800 961 z m 532 749 b 808 472 683 749 808 625 b 532 194 808 318 683 194 b 253 472 378 194 253 318 b 532 749 253 625 378 749 z "},"ò":{"ha":1064,"x_min":0,"x_max":0,"o":"m 319 1183 l 763 1046 l 836 1188 l 397 1369 z m 532 961 b 44 472 261 961 44 740 b 532 -17 44 203 261 -17 b 1019 472 800 -17 1019 203 b 532 961 1019 740 800 961 z m 532 749 b 808 472 683 749 808 625 b 532 194 808 318 683 194 b 253 472 378 194 253 318 b 532 749 253 625 378 749 z "},"ő":{"ha":1064,"x_min":0,"x_max":0,"o":"m 250 1086 l 400 1064 l 642 1342 l 446 1361 z m 610 1086 l 760 1064 l 1001 1342 l 806 1361 z m 532 961 b 44 472 261 961 44 740 b 532 -17 44 203 261 -17 b 1019 472 800 -17 1019 203 b 532 961 1019 740 800 961 z m 532 749 b 808 472 683 749 808 625 b 532 194 808 318 683 194 b 253 472 378 194 253 318 b 532 749 253 625 378 749 z "},"ō":{"ha":1064,"x_min":0,"x_max":0,"o":"m 856 1069 l 856 1253 l 235 1253 l 235 1069 z m 532 961 b 44 472 261 961 44 740 b 532 -17 44 203 261 -17 b 1019 472 800 -17 1019 203 b 532 961 1019 740 800 961 z m 532 749 b 808 472 683 749 808 625 b 532 194 808 318 683 194 b 253 472 378 194 253 318 b 532 749 253 625 378 749 z "},"ø":{"ha":1136,"x_min":0,"x_max":0,"o":"m 997 740 l 1072 817 l 908 978 l 826 894 b 567 961 751 936 664 961 b 58 474 271 961 58 736 b 142 203 58 375 88 282 l 65 128 l 229 -33 l 308 50 b 567 -17 383 7 471 -17 b 1078 474 863 -17 1078 213 b 997 740 1078 572 1050 663 z m 286 474 b 567 749 286 631 401 749 b 668 733 604 749 636 744 l 307 371 b 286 474 293 403 286 438 z m 567 194 b 469 210 532 194 500 199 l 831 575 b 849 474 842 544 849 510 b 567 194 849 325 735 194 z "},"ǿ":{"ha":1136,"x_min":0,"x_max":0,"o":"m 314 1196 l 382 1058 l 825 1196 l 753 1378 z m 997 740 l 1072 817 l 908 978 l 826 894 b 567 961 751 936 664 961 b 58 474 271 961 58 736 b 142 203 58 375 88 282 l 65 128 l 229 -33 l 308 50 b 567 -17 383 7 471 -17 b 1078 474 863 -17 1078 213 b 997 740 1078 572 1050 663 z m 286 474 b 567 749 286 631 401 749 b 668 733 604 749 636 744 l 307 371 b 286 474 293 403 286 438 z m 567 194 b 469 210 532 194 500 199 l 831 575 b 849 474 842 544 849 510 b 567 194 849 325 735 194 z "},"õ":{"ha":1064,"x_min":0,"x_max":0,"o":"m 396 1321 b 218 1260 301 1321 219 1263 l 261 1088 b 399 1122 261 1088 324 1122 b 669 1065 500 1122 564 1065 b 876 1157 796 1065 876 1151 l 819 1304 b 669 1261 819 1304 768 1261 b 396 1321 576 1261 515 1321 z m 532 961 b 44 472 261 961 44 740 b 532 -17 44 203 261 -17 b 1019 472 800 -17 1019 203 b 532 961 1019 740 800 961 z m 532 749 b 808 472 683 749 808 625 b 532 194 808 318 683 194 b 253 472 378 194 253 318 b 532 749 253 625 378 749 z "},"œ":{"ha":1628,"x_min":0,"x_max":0,"o":"m 1549 733 l 1549 944 l 824 944 l 824 872 b 546 961 743 928 650 961 b 58 472 275 961 58 740 b 546 -17 58 203 275 -17 b 824 71 650 -17 743 15 l 824 0 l 1549 0 l 1549 211 l 1053 211 l 1053 374 l 1467 374 l 1467 571 l 1053 571 l 1053 733 z m 546 194 b 267 472 392 194 267 318 b 546 749 267 625 392 749 b 822 472 697 749 822 625 b 546 194 822 318 697 194 z "},"p":{"ha":963,"x_min":0,"x_max":0,"o":"m 535 944 l 99 944 l 99 0 l 328 0 l 328 214 l 533 214 b 893 581 775 214 893 394 b 535 944 893 764 776 944 z m 508 733 b 663 581 600 732 663 682 b 508 424 663 478 600 424 l 328 424 l 328 733 z "},"þ":{"ha":944,"x_min":0,"x_max":0,"o":"m 333 944 l 106 944 l 106 0 l 333 0 l 333 186 l 543 186 b 889 511 763 186 889 328 b 543 836 889 694 763 836 l 333 836 z m 518 628 b 658 511 596 626 658 588 b 518 394 658 435 596 394 l 333 394 l 333 628 z "},"q":{"ha":1107,"x_min":0,"x_max":0,"o":"m 1051 475 b 554 961 1051 736 838 961 b 58 475 271 961 58 736 b 554 -17 58 214 271 -17 b 763 31 631 -17 700 1 l 846 -62 l 1000 85 l 935 161 b 1051 475 1008 246 1051 357 z m 286 475 b 554 750 286 632 401 750 b 822 475 708 750 822 632 b 783 331 822 424 808 371 l 639 499 l 479 350 l 611 201 b 554 194 593 197 574 194 b 286 475 401 194 286 325 z "},"r":{"ha":982,"x_min":0,"x_max":0,"o":"m 563 944 l 106 944 l 106 0 l 333 0 l 333 235 l 500 235 l 642 0 l 925 0 l 731 285 b 899 590 832 339 899 454 b 563 944 899 796 754 944 z m 531 733 b 669 590 607 733 669 668 b 529 446 669 511 607 446 l 333 446 l 333 733 z "},"ŕ":{"ha":982,"x_min":0,"x_max":0,"o":"m 240 1176 l 308 1039 l 751 1176 l 679 1358 z m 563 944 l 106 944 l 106 0 l 333 0 l 333 235 l 500 235 l 642 0 l 925 0 l 731 285 b 899 590 832 339 899 454 b 563 944 899 796 754 944 z m 531 733 b 669 590 607 733 669 668 b 529 446 669 511 607 446 l 333 446 l 333 733 z "},"ř":{"ha":982,"x_min":0,"x_max":0,"o":"m 675 1393 l 460 1247 l 244 1393 l 146 1267 l 460 1068 l 774 1267 z m 563 944 l 106 944 l 106 0 l 333 0 l 333 235 l 500 235 l 642 0 l 925 0 l 731 285 b 899 590 832 339 899 454 b 563 944 899 796 754 944 z m 531 733 b 669 590 607 733 669 668 b 529 446 669 511 607 446 l 333 446 l 333 733 z "},"ŗ":{"ha":982,"x_min":0,"x_max":0,"o":"m 563 944 l 106 944 l 106 0 l 333 0 l 333 235 l 500 235 l 642 0 l 925 0 l 731 285 b 899 590 832 339 899 454 b 563 944 899 796 754 944 z m 531 733 b 669 590 607 733 669 668 b 529 446 669 511 607 446 l 333 446 l 333 733 z m 639 -324 l 393 -583 l 256 -475 l 449 -175 z "},"s":{"ha":922,"x_min":0,"x_max":0,"o":"m 461 961 b 76 661 246 961 76 833 b 467 365 76 451 325 399 b 633 264 554 344 633 324 b 494 181 633 224 596 181 b 289 331 307 181 289 331 l 63 331 b 482 -17 63 183 186 -17 b 861 276 703 -17 861 96 b 503 574 861 485 651 535 b 307 672 369 608 307 626 b 458 757 307 726 390 757 b 611 646 556 757 611 693 l 838 646 b 461 961 838 793 707 961 z "},"ś":{"ha":922,"x_min":0,"x_max":0,"o":"m 214 1176 l 282 1039 l 725 1176 l 653 1358 z m 461 961 b 76 661 246 961 76 833 b 467 365 76 451 325 399 b 633 264 554 344 633 324 b 494 181 633 224 596 181 b 289 331 307 181 289 331 l 63 331 b 482 -17 63 183 186 -17 b 861 276 703 -17 861 96 b 503 574 861 485 651 535 b 307 672 369 608 307 626 b 458 757 307 726 390 757 b 611 646 556 757 611 693 l 838 646 b 461 961 838 793 707 961 z "},"š":{"ha":932,"x_min":0,"x_max":0,"o":"m 683 1394 l 468 1249 l 253 1394 l 154 1268 l 468 1069 l 782 1268 z m 458 961 b 76 668 246 961 76 829 b 467 365 76 454 300 406 b 633 265 554 344 633 324 b 486 181 633 224 601 181 b 289 331 313 181 289 331 l 63 331 b 472 -17 63 183 192 -17 b 861 279 708 -17 861 96 b 503 574 861 490 633 539 b 307 668 421 596 307 619 b 458 757 307 729 390 757 b 611 646 556 757 611 693 l 838 646 b 458 961 838 793 708 961 z "},"ş":{"ha":932,"x_min":0,"x_max":0,"o":"m 861 276 b 503 574 861 485 651 535 b 307 672 369 608 307 626 b 458 757 307 726 390 757 b 611 646 556 757 611 693 l 838 646 b 461 961 838 793 707 961 b 76 661 246 961 76 833 b 467 365 76 451 325 399 b 633 264 554 344 633 324 b 494 181 633 224 596 181 b 289 331 307 181 289 331 l 63 331 b 367 -6 63 204 154 39 l 256 -175 l 458 -260 l 588 -7 b 861 276 751 24 861 126 z "},"ș":{"ha":922,"x_min":0,"x_max":0,"o":"m 461 961 b 76 661 246 961 76 833 b 467 365 76 451 325 399 b 633 264 554 344 633 324 b 494 181 633 224 596 181 b 289 331 307 181 289 331 l 63 331 b 482 -17 63 183 186 -17 b 861 276 703 -17 861 96 b 503 574 861 485 651 535 b 307 672 369 608 307 626 b 458 757 307 726 390 757 b 611 646 556 757 611 693 l 838 646 b 461 961 838 793 707 961 z m 642 -324 l 396 -583 l 258 -475 l 451 -175 z "},"t":{"ha":1000,"x_min":0,"x_max":0,"o":"m 950 944 l 50 944 l 50 733 l 385 733 l 385 0 l 615 0 l 615 733 l 950 733 z "},"ŧ":{"ha":1000,"x_min":0,"x_max":0,"o":"m 950 733 l 950 944 l 50 944 l 50 733 l 385 733 l 385 589 l 132 589 l 132 392 l 385 392 l 385 0 l 615 0 l 615 392 l 865 392 l 865 589 l 615 589 l 615 733 z "},"ť":{"ha":1000,"x_min":0,"x_max":0,"o":"m 717 1393 l 501 1247 l 286 1393 l 188 1267 l 501 1068 l 815 1267 z m 950 944 l 50 944 l 50 733 l 385 733 l 385 0 l 615 0 l 615 733 l 950 733 z "},"ţ":{"ha":1000,"x_min":0,"x_max":0,"o":"m 50 944 l 50 733 l 385 733 l 385 0 l 239 -300 l 442 -383 l 615 0 l 615 733 l 950 733 l 950 944 z "},"ț":{"ha":1000,"x_min":0,"x_max":0,"o":"m 950 944 l 50 944 l 50 733 l 385 733 l 385 0 l 615 0 l 615 733 l 950 733 z m 668 -306 l 422 -565 l 285 -457 l 478 -157 z "},"u":{"ha":1028,"x_min":0,"x_max":0,"o":"m 969 944 l 739 944 l 739 485 b 508 194 739 303 650 194 b 286 485 364 194 286 303 l 286 944 l 58 944 l 58 485 b 508 -17 58 172 240 -17 b 969 485 772 -17 969 172 z "},"ú":{"ha":1028,"x_min":0,"x_max":0,"o":"m 304 1176 l 372 1039 l 815 1176 l 743 1358 z m 969 944 l 739 944 l 739 485 b 508 194 739 303 650 194 b 286 485 364 194 286 303 l 286 944 l 58 944 l 58 485 b 508 -17 58 172 240 -17 b 969 485 772 -17 969 172 z "},"ŭ":{"ha":1028,"x_min":0,"x_max":0,"o":"m 776 1221 l 636 1289 b 535 1215 615 1246 578 1215 b 436 1289 494 1215 458 1246 l 297 1221 b 532 1051 332 1124 426 1051 b 776 1221 647 1051 740 1124 z m 969 944 l 739 944 l 739 485 b 508 194 739 303 650 194 b 286 485 364 194 286 303 l 286 944 l 58 944 l 58 485 b 508 -17 58 172 240 -17 b 969 485 772 -17 969 172 z "},"û":{"ha":1028,"x_min":0,"x_max":0,"o":"m 539 1208 l 768 1056 l 867 1175 l 539 1372 l 211 1175 l 310 1056 z m 969 944 l 739 944 l 739 485 b 508 194 739 303 650 194 b 286 485 364 194 286 303 l 286 944 l 58 944 l 58 485 b 508 -17 58 172 240 -17 b 969 485 772 -17 969 172 z "},"ü":{"ha":1028,"x_min":0,"x_max":0,"o":"m 343 1335 b 214 1201 272 1335 214 1275 b 343 1072 214 1132 272 1072 b 475 1201 417 1072 475 1132 b 343 1335 475 1275 417 1335 z m 732 1335 b 603 1201 663 1335 603 1275 b 732 1072 603 1132 663 1072 b 865 1201 806 1072 865 1132 b 732 1335 865 1275 806 1335 z m 969 944 l 739 944 l 739 485 b 508 194 739 303 650 194 b 286 485 364 194 286 303 l 286 944 l 58 944 l 58 485 b 508 -17 58 172 240 -17 b 969 485 772 -17 969 172 z "},"ù":{"ha":1028,"x_min":0,"x_max":0,"o":"m 257 1183 l 700 1046 l 774 1188 l 335 1369 z m 969 944 l 739 944 l 739 485 b 508 194 739 303 650 194 b 286 485 364 194 286 303 l 286 944 l 58 944 l 58 485 b 508 -17 58 172 240 -17 b 969 485 772 -17 969 172 z "},"ű":{"ha":1028,"x_min":0,"x_max":0,"o":"m 210 1086 l 360 1064 l 601 1342 l 406 1361 z m 569 1086 l 719 1064 l 961 1342 l 765 1361 z m 969 944 l 739 944 l 739 485 b 508 194 739 303 650 194 b 286 485 364 194 286 303 l 286 944 l 58 944 l 58 485 b 508 -17 58 172 240 -17 b 969 485 772 -17 969 172 z "},"ū":{"ha":1028,"x_min":0,"x_max":0,"o":"m 847 1069 l 847 1253 l 226 1253 l 226 1069 z m 969 944 l 739 944 l 739 485 b 508 194 739 303 650 194 b 286 485 364 194 286 303 l 286 944 l 58 944 l 58 485 b 508 -17 58 172 240 -17 b 969 485 772 -17 969 172 z "},"ų":{"ha":1075,"x_min":0,"x_max":0,"o":"m 739 944 l 739 485 b 508 194 739 303 650 194 b 286 485 364 194 286 303 l 286 944 l 58 944 l 58 485 b 508 -17 58 172 240 -17 b 568 -14 529 -17 549 -15 b 549 -111 556 -44 549 -78 b 726 -290 549 -233 665 -290 l 822 -189 b 746 -62 821 -189 746 -168 b 792 75 746 -10 767 39 b 969 485 901 161 969 301 l 969 944 z "},"ů":{"ha":1028,"x_min":0,"x_max":0,"o":"m 533 1356 b 368 1185 444 1356 368 1279 b 533 1018 368 1094 444 1018 b 704 1185 628 1018 704 1094 b 533 1356 704 1279 628 1356 z m 535 1236 b 586 1186 564 1236 586 1214 b 535 1136 586 1160 564 1136 b 486 1186 508 1136 486 1160 b 535 1236 486 1214 508 1236 z m 969 944 l 739 944 l 739 485 b 508 194 739 303 650 194 b 286 485 364 194 286 303 l 286 944 l 58 944 l 58 485 b 508 -17 58 172 240 -17 b 969 485 772 -17 969 172 z "},"v":{"ha":1181,"x_min":0,"x_max":0,"o":"m 1135 944 l 883 944 l 592 269 l 299 944 l 47 944 l 465 0 l 715 0 z "},"w":{"ha":1663,"x_min":0,"x_max":0,"o":"m 1367 944 l 1147 335 l 956 944 l 707 944 l 492 332 l 296 944 l 53 944 l 367 0 l 603 0 l 825 615 l 1024 0 l 1257 0 l 1611 944 z "},"ẃ":{"ha":1663,"x_min":0,"x_max":0,"o":"m 1089 1176 l 1017 1358 l 578 1176 l 646 1039 z m 1367 944 l 1147 335 l 956 944 l 707 944 l 492 332 l 296 944 l 53 944 l 367 0 l 603 0 l 825 615 l 1024 0 l 1257 0 l 1611 944 z "},"ŵ":{"ha":1663,"x_min":0,"x_max":0,"o":"m 831 1208 l 1060 1056 l 1158 1175 l 831 1372 l 503 1175 l 601 1056 z m 1367 944 l 1147 335 l 956 944 l 707 944 l 492 332 l 296 944 l 53 944 l 367 0 l 603 0 l 825 615 l 1024 0 l 1257 0 l 1611 944 z "},"ẅ":{"ha":1663,"x_min":0,"x_max":0,"o":"m 636 1072 b 768 1201 710 1072 768 1132 b 636 1335 768 1275 710 1335 b 507 1201 565 1335 507 1275 b 636 1072 507 1132 565 1072 z m 1025 1072 b 1158 1201 1099 1072 1158 1132 b 1025 1335 1158 1275 1099 1335 b 896 1201 956 1335 896 1275 b 1025 1072 896 1132 956 1072 z m 1367 944 l 1147 335 l 956 944 l 707 944 l 492 332 l 296 944 l 53 944 l 367 0 l 603 0 l 825 615 l 1024 0 l 1257 0 l 1611 944 z "},"ẁ":{"ha":1663,"x_min":0,"x_max":0,"o":"m 1085 1188 l 646 1369 l 568 1183 l 1011 1046 z m 1367 944 l 1147 335 l 956 944 l 707 944 l 492 332 l 296 944 l 53 944 l 367 0 l 603 0 l 825 615 l 1024 0 l 1257 0 l 1611 944 z "},"x":{"ha":1060,"x_min":0,"x_max":0,"o":"m 229 -15 l 544 299 l 856 -18 l 1021 146 l 706 460 l 1051 800 l 889 961 l 546 625 l 213 961 l 50 799 l 383 463 l 67 150 z "},"y":{"ha":1154,"x_min":0,"x_max":0,"o":"m 1097 944 l 832 944 l 579 558 l 322 944 l 60 944 l 463 357 l 463 0 l 692 0 l 692 357 z "},"ý":{"ha":1154,"x_min":0,"x_max":0,"o":"m 324 1176 l 392 1039 l 835 1176 l 763 1358 z m 1097 944 l 832 944 l 579 558 l 322 944 l 60 944 l 463 357 l 463 0 l 692 0 l 692 357 z "},"ŷ":{"ha":1154,"x_min":0,"x_max":0,"o":"m 581 1208 l 810 1056 l 908 1175 l 581 1372 l 253 1175 l 351 1056 z m 1097 944 l 832 944 l 579 558 l 322 944 l 60 944 l 463 357 l 463 0 l 692 0 l 692 357 z "},"ÿ":{"ha":1154,"x_min":0,"x_max":0,"o":"m 383 1335 b 254 1201 313 1335 254 1275 b 383 1072 254 1132 313 1072 b 515 1201 457 1072 515 1132 b 383 1335 515 1275 457 1335 z m 772 1335 b 643 1201 703 1335 643 1275 b 772 1072 643 1132 703 1072 b 906 1201 846 1072 906 1132 b 772 1335 906 1275 846 1335 z m 1097 944 l 832 944 l 579 558 l 322 944 l 60 944 l 463 357 l 463 0 l 692 0 l 692 357 z "},"ỳ":{"ha":1154,"x_min":0,"x_max":0,"o":"m 318 1183 l 761 1046 l 835 1188 l 396 1369 z m 1097 944 l 832 944 l 579 558 l 322 944 l 60 944 l 463 357 l 463 0 l 692 0 l 692 357 z "},"z":{"ha":1111,"x_min":0,"x_max":0,"o":"m 996 944 l 101 944 l 101 733 l 676 733 l 65 204 l 65 0 l 1006 0 l 1006 211 l 401 211 l 996 743 z "},"ź":{"ha":1111,"x_min":0,"x_max":0,"o":"m 301 1176 l 369 1039 l 813 1176 l 740 1358 z m 996 944 l 101 944 l 101 733 l 676 733 l 65 204 l 65 0 l 1006 0 l 1006 211 l 401 211 l 996 743 z "},"ž":{"ha":1111,"x_min":0,"x_max":0,"o":"m 774 1393 l 558 1247 l 343 1393 l 244 1267 l 558 1068 l 872 1267 z m 996 944 l 101 944 l 101 733 l 676 733 l 65 204 l 65 0 l 1006 0 l 1006 211 l 401 211 l 996 743 z "},"ż":{"ha":1111,"x_min":0,"x_max":0,"o":"m 565 1328 b 436 1194 494 1328 436 1268 b 565 1065 436 1125 494 1065 b 697 1194 639 1065 697 1125 b 565 1328 697 1268 639 1328 z m 996 944 l 101 944 l 101 733 l 676 733 l 65 204 l 65 0 l 1006 0 l 1006 211 l 401 211 l 996 743 z "},"μ":{"ha":1032,"x_min":0,"x_max":0,"o":"m 983 201 b 879 257 983 201 879 168 l 879 750 l 657 750 l 654 374 b 485 181 644 254 603 181 b 313 435 331 181 313 282 l 313 751 l 99 751 l 99 -197 l 313 -197 l 313 13 b 461 -15 360 -7 410 -15 b 656 82 572 -15 646 58 b 836 -19 669 32 715 -19 b 1004 26 949 -19 1004 26 z m 657 422 l 657 463 z "},"*":{"ha":731,"x_min":0,"x_max":0,"o":"m 689 769 l 628 956 l 451 872 l 463 1069 l 269 1069 l 282 872 l 103 956 l 42 769 l 242 708 l 107 543 l 265 433 l 367 590 l 465 433 l 625 543 l 490 708 z "},"\\":{"ha":649,"x_min":0,"x_max":0,"o":"m 569 0 l 319 944 l 79 944 l 328 0 z "},"·":{"ha":390,"x_min":0,"x_max":0,"o":"m 193 546 b 60 408 121 546 60 483 b 193 274 60 335 121 274 b 332 408 269 274 332 335 b 193 546 332 483 269 546 z "},"•":{"ha":521,"x_min":0,"x_max":0,"o":"m 257 613 b 60 408 151 613 60 522 b 257 210 60 301 151 210 b 461 408 372 210 461 301 b 257 613 461 522 372 613 z "},":":{"ha":378,"x_min":0,"x_max":0,"o":"m 186 803 b 53 664 114 803 53 740 b 186 531 53 592 114 531 b 325 664 263 531 325 592 b 186 803 325 740 263 803 z m 186 432 b 53 293 114 432 53 369 b 186 160 53 221 114 160 b 325 293 263 160 325 221 b 186 432 325 369 263 432 z "},",":{"ha":382,"x_min":0,"x_max":0,"o":"m 365 44 l 119 -215 l -18 -107 l 175 193 z "},"…":{"ha":969,"x_min":0,"x_max":0,"o":"m 181 256 b 46 117 108 256 46 193 b 181 -17 46 44 108 -17 b 318 117 257 -17 318 44 b 181 256 318 193 257 256 z m 483 256 b 349 117 410 256 349 193 b 483 -17 349 44 410 -17 b 621 117 558 -17 621 44 b 483 256 621 193 558 256 z m 785 256 b 651 117 713 256 651 193 b 785 -17 651 44 713 -17 b 924 117 861 -17 924 44 b 785 256 924 193 861 256 z "},"!":{"ha":410,"x_min":0,"x_max":0,"o":"m 319 944 l 89 944 l 103 315 l 307 315 z m 203 256 b 68 117 131 256 68 193 b 203 -17 68 44 131 -17 b 340 117 279 -17 340 44 b 203 256 340 193 279 256 z "},"¡":{"ha":436,"x_min":0,"x_max":0,"o":"m 219 963 b 82 829 143 963 82 901 b 219 690 82 753 143 690 b 354 829 292 690 354 753 b 219 963 354 901 292 963 z m 319 632 l 115 632 l 103 0 l 333 0 z "},"#":{"ha":1036,"x_min":0,"x_max":0,"o":"m 818 507 l 971 507 l 971 704 l 818 704 l 818 860 l 601 860 l 601 704 l 435 704 l 435 860 l 218 860 l 218 704 l 65 704 l 65 507 l 218 507 l 218 404 l 65 404 l 65 207 l 218 207 l 218 50 l 435 50 l 435 207 l 601 207 l 601 50 l 818 50 l 818 207 l 971 207 l 971 404 l 818 404 z m 601 507 l 601 404 l 435 404 l 435 507 z "},".":{"ha":378,"x_min":0,"x_max":0,"o":"m 186 256 b 53 117 114 256 53 193 b 186 -17 53 44 114 -17 b 325 117 263 -17 325 44 b 186 256 325 193 263 256 z "},"?":{"ha":839,"x_min":0,"x_max":0,"o":"m 428 961 b 57 644 197 961 57 838 l 286 644 b 414 753 286 699 340 753 b 546 642 488 753 546 707 b 267 315 546 528 267 542 l 514 315 b 776 682 514 447 776 438 b 428 961 776 835 667 961 z m 394 256 b 261 117 322 256 261 193 b 394 -17 261 44 322 -17 b 533 117 471 -17 533 44 b 394 256 533 193 471 256 z "},"¿":{"ha":794,"x_min":0,"x_max":0,"o":"m 421 692 b 554 831 493 692 554 754 b 421 964 554 903 493 964 b 282 831 344 964 282 903 b 421 692 282 754 344 692 z m 388 -14 b 758 303 618 -14 758 110 l 529 303 b 401 194 529 249 475 194 b 269 306 328 194 269 240 b 549 632 269 419 549 406 l 301 632 b 39 265 301 500 39 510 b 388 -14 39 113 149 -14 z "},"\"":{"ha":740,"x_min":0,"x_max":0,"o":"m 307 944 l 274 589 l 99 589 l 65 944 z m 675 944 l 642 589 l 467 589 l 435 944 z "},"'":{"ha":372,"x_min":0,"x_max":0,"o":"m 307 944 l 274 589 l 99 589 l 65 944 z "},";":{"ha":382,"x_min":0,"x_max":0,"o":"m 181 626 b 46 488 108 626 46 564 b 181 354 46 415 108 354 b 318 488 257 354 318 415 b 181 626 318 564 257 626 z m 365 44 l 119 -215 l -18 -107 l 175 193 z "},"/":{"ha":649,"x_min":0,"x_max":0,"o":"m 569 944 l 329 944 l 79 0 l 321 0 z "},"_":{"ha":1143,"x_min":0,"x_max":0,"o":"m 1078 -210 l 1078 -32 l 65 -32 l 65 -210 z "},"{":{"ha":539,"x_min":0,"x_max":0,"o":"m 435 944 l 204 944 l 204 683 l 53 481 l 204 276 l 204 0 l 435 0 z "},"}":{"ha":539,"x_min":0,"x_max":0,"o":"m 335 683 l 335 944 l 106 944 l 106 0 l 335 0 l 335 276 l 486 481 z "},"[":{"ha":515,"x_min":0,"x_max":0,"o":"m 335 733 l 447 733 l 447 944 l 106 944 l 106 0 l 447 0 l 447 211 l 335 211 z "},"]":{"ha":515,"x_min":0,"x_max":0,"o":"m 68 944 l 68 733 l 181 733 l 181 211 l 68 211 l 68 0 l 410 0 l 410 944 z "},"(":{"ha":522,"x_min":0,"x_max":0,"o":"m 276 1039 b 79 481 276 1039 79 865 b 276 -79 79 94 276 -79 l 464 38 b 308 481 464 38 308 258 b 460 924 308 703 460 924 z "},")":{"ha":531,"x_min":0,"x_max":0,"o":"m 254 1039 l 69 924 b 222 481 69 924 222 703 b 65 38 222 258 65 38 l 254 -79 b 451 481 254 -79 451 94 b 254 1039 451 865 254 1039 z "},"—":{"ha":1285,"x_min":0,"x_max":0,"o":"m 1219 579 l 65 579 l 65 368 l 1219 368 z "},"–":{"ha":800,"x_min":0,"x_max":0,"o":"m 733 579 l 65 579 l 65 368 l 733 368 z "},"-":{"ha":643,"x_min":0,"x_max":0,"o":"m 578 579 l 65 579 l 65 368 l 578 368 z "},"­":{"ha":789,"x_min":0,"x_max":0,"o":"m 578 579 l 65 579 l 65 368 l 578 368 z "},"«":{"ha":917,"x_min":0,"x_max":0,"o":"m 464 340 l 332 221 l 65 486 l 332 753 l 464 633 l 317 486 z m 851 340 l 718 221 l 453 486 l 718 753 l 851 633 l 704 486 z "},"»":{"ha":917,"x_min":0,"x_max":0,"o":"m 464 486 l 199 221 l 65 340 l 213 486 l 65 633 l 199 753 z m 851 486 l 585 221 l 453 340 l 600 486 l 453 633 l 585 753 z "},"‹":{"ha":531,"x_min":0,"x_max":0,"o":"m 332 753 l 65 486 l 332 221 l 464 340 l 317 486 l 464 633 z "},"›":{"ha":531,"x_min":0,"x_max":0,"o":"m 464 486 l 199 221 l 65 340 l 213 486 l 65 633 l 199 753 z "},"„":{"ha":669,"x_min":0,"x_max":0,"o":"m 279 185 l 246 -171 l 71 -171 l 38 185 z m 647 185 l 614 -171 l 439 -171 l 407 185 z "},"“":{"ha":740,"x_min":0,"x_max":0,"o":"m 307 944 l 274 589 l 99 589 l 65 944 z m 675 944 l 642 589 l 467 589 l 435 944 z "},"”":{"ha":740,"x_min":0,"x_max":0,"o":"m 307 944 l 274 589 l 99 589 l 65 944 z m 675 944 l 642 589 l 467 589 l 435 944 z "},"‘":{"ha":372,"x_min":0,"x_max":0,"o":"m 307 944 l 274 589 l 99 589 l 65 944 z "},"’":{"ha":372,"x_min":0,"x_max":0,"o":"m 307 944 l 274 589 l 99 589 l 65 944 z "},"¢":{"ha":831,"x_min":0,"x_max":0,"o":"m 603 282 b 447 186 571 226 513 186 b 376 200 422 186 399 192 l 569 503 b 601 460 582 490 593 475 l 786 572 b 685 683 758 615 725 653 l 724 744 l 607 819 l 563 749 b 446 767 525 760 486 767 b 53 372 219 767 53 589 b 153 107 53 267 90 174 l 96 18 l 213 -57 l 264 24 b 447 -17 318 -3 381 -17 b 789 168 596 -17 718 54 z m 269 372 b 444 564 269 481 350 563 l 279 307 b 269 372 274 326 269 349 z "},"¤":{"ha":1026,"x_min":0,"x_max":0,"o":"m 821 969 l 722 872 b 513 929 661 907 589 929 b 304 872 436 929 365 907 l 206 969 l 57 821 l 154 722 b 97 513 118 661 97 589 b 154 304 97 436 118 364 l 57 206 l 206 57 l 304 156 b 513 99 365 119 436 99 b 722 156 589 99 660 119 l 821 57 l 969 206 l 871 304 b 928 513 906 365 928 436 b 871 722 928 589 906 660 l 969 821 z m 513 718 b 718 513 628 718 718 622 b 513 308 718 433 664 308 b 308 513 399 308 308 400 b 513 718 308 626 400 718 z "},"$":{"ha":922,"x_min":0,"x_max":0,"o":"m 861 276 b 503 574 861 485 651 535 b 307 672 369 608 307 626 b 458 757 307 726 390 757 b 611 646 556 757 611 693 l 838 646 b 569 949 838 769 744 908 l 569 1101 l 365 1101 l 365 953 b 76 661 197 921 76 807 b 467 365 76 451 325 399 b 633 264 554 344 633 324 b 494 181 633 224 596 181 b 289 331 307 181 289 331 l 63 331 b 365 -6 63 204 153 39 l 365 -147 l 569 -147 l 569 -10 b 861 276 743 15 861 121 z "},"€":{"ha":997,"x_min":0,"x_max":0,"o":"m 546 961 b 143 647 368 961 199 881 l 39 647 l 39 493 l 126 493 l 126 453 l 39 453 l 39 299 l 143 299 b 546 -17 199 64 368 -17 b 951 172 822 -17 951 172 l 765 299 b 546 197 765 299 693 197 b 389 299 489 197 428 225 l 669 299 l 669 453 l 357 453 l 357 493 l 669 493 l 669 647 l 389 647 b 546 749 428 721 489 749 b 765 646 693 749 765 646 l 951 771 b 546 961 951 771 831 961 z "},"£":{"ha":893,"x_min":0,"x_max":0,"o":"m 475 961 b 114 682 254 961 114 851 b 156 538 114 629 132 588 l 56 538 l 56 328 l 204 328 b 69 199 204 269 103 206 l 69 0 l 835 0 l 835 217 l 386 217 b 435 328 413 244 432 292 l 697 328 l 697 538 l 392 538 b 343 669 369 582 343 614 b 475 751 343 715 404 751 b 607 622 568 751 607 707 l 838 622 b 475 961 838 747 767 961 z "},"¥":{"ha":1204,"x_min":0,"x_max":0,"o":"m 826 515 l 1122 944 l 857 944 l 603 547 l 346 944 l 82 944 l 379 515 l 247 515 l 247 332 l 486 332 l 486 275 l 247 275 l 247 104 l 486 104 l 486 0 l 717 0 l 717 104 l 956 104 l 956 275 l 717 275 l 717 332 l 956 332 l 956 515 z "},"≈":{"ha":764,"x_min":0,"x_max":0,"o":"m 231 757 b 53 696 136 757 54 699 l 96 489 b 233 524 96 489 158 524 b 504 467 335 524 421 467 b 711 558 631 467 711 553 l 654 739 b 504 697 654 739 603 699 b 231 757 432 696 326 757 z m 231 424 b 53 363 136 424 54 365 l 96 157 b 233 190 96 157 158 190 b 504 135 335 190 421 135 b 711 225 631 135 711 219 l 654 407 b 504 364 654 407 603 365 b 231 424 432 363 329 424 z "},"~":{"ha":764,"x_min":0,"x_max":0,"o":"m 231 625 b 53 564 136 625 54 567 l 96 371 b 233 406 96 371 158 406 b 504 349 335 406 421 349 b 711 439 631 349 711 435 l 654 608 b 504 565 654 608 603 567 b 231 625 432 564 326 625 z "},"÷":{"ha":807,"x_min":0,"x_max":0,"o":"m 403 853 b 256 706 324 853 256 789 b 403 558 256 621 325 558 b 550 706 479 558 550 621 b 403 853 550 788 482 853 z m 754 507 l 53 507 l 53 296 l 754 296 z m 403 244 b 256 97 324 244 256 182 b 403 -50 256 13 325 -50 b 550 97 479 -50 550 13 b 403 244 550 181 482 244 z "},"=":{"ha":789,"x_min":0,"x_max":0,"o":"m 754 683 l 53 683 l 53 474 l 754 474 z m 754 356 l 53 356 l 53 144 l 754 144 z "},">":{"ha":635,"x_min":0,"x_max":0,"o":"m 61 263 l 61 10 l 590 342 l 590 532 l 61 878 l 61 624 l 321 443 z "},"<":{"ha":635,"x_min":0,"x_max":0,"o":"m 44 342 l 575 10 l 575 263 l 314 443 l 575 624 l 575 878 l 44 532 z "},"¬":{"ha":831,"x_min":0,"x_max":0,"o":"m 778 510 l 50 510 l 50 300 l 547 300 l 547 211 l 778 211 z "},"−":{"ha":807,"x_min":0,"x_max":0,"o":"m 754 513 l 53 513 l 53 303 l 754 303 z "},"×":{"ha":750,"x_min":0,"x_max":0,"o":"m 549 733 l 375 560 l 201 733 l 53 585 l 226 411 l 53 238 l 201 89 l 375 263 l 549 89 l 697 238 l 524 411 l 697 585 z "},"≠":{"ha":807,"x_min":0,"x_max":0,"o":"m 624 742 l 396 742 l 358 596 l 53 596 l 53 385 l 304 385 l 274 267 l 53 267 l 53 57 l 219 57 l 182 -90 l 410 -90 l 449 57 l 754 57 l 754 267 l 503 267 l 533 385 l 754 385 l 754 596 l 586 596 z "},"%":{"ha":1200,"x_min":0,"x_max":0,"o":"m 254 961 b 32 740 135 961 32 867 b 254 518 32 614 136 518 b 476 740 368 518 476 614 b 254 961 476 864 371 961 z m 985 944 l 757 944 l 188 0 l 417 0 z m 254 789 b 303 740 279 789 303 767 b 254 690 303 713 279 690 b 206 740 228 690 206 713 b 254 789 206 768 228 789 z m 946 428 b 724 206 828 428 724 333 b 946 -17 724 81 829 -17 b 1168 206 1061 -17 1168 81 b 946 428 1168 331 1064 428 z m 946 256 b 994 206 972 256 994 233 b 946 157 994 179 972 157 b 897 206 921 157 897 179 b 946 256 897 235 921 256 z "},"‰":{"ha":1683,"x_min":0,"x_max":0,"o":"m 261 961 b 39 739 143 961 39 867 b 261 517 39 614 144 517 b 483 739 378 517 483 614 b 261 961 483 864 381 961 z m 999 944 l 771 944 l 201 0 l 431 0 z m 261 789 b 310 739 288 789 310 767 b 261 690 310 713 288 690 b 213 739 236 690 213 713 b 261 789 213 768 236 789 z m 946 428 b 724 206 828 428 724 333 b 946 -17 724 81 829 -17 b 1168 206 1061 -17 1168 81 b 946 428 1168 331 1064 428 z m 1435 428 b 1213 206 1317 428 1213 333 b 1435 -17 1213 81 1318 -17 b 1657 206 1551 -17 1657 81 b 1435 428 1657 331 1553 428 z m 946 256 b 994 206 972 256 994 233 b 946 157 994 179 972 157 b 897 206 921 157 897 179 b 946 256 897 235 921 256 z m 1435 256 b 1483 206 1461 256 1483 233 b 1435 157 1483 179 1461 157 b 1386 206 1410 157 1386 179 b 1435 256 1386 235 1410 256 z "},"+":{"ha":781,"x_min":0,"x_max":0,"o":"m 506 736 l 275 736 l 275 519 l 53 519 l 53 310 l 275 310 l 275 92 l 506 92 l 506 310 l 728 310 l 728 519 l 506 519 z "},"±":{"ha":728,"x_min":0,"x_max":0,"o":"m 479 851 l 249 851 l 249 693 l 65 693 l 65 483 l 249 483 l 249 325 l 479 325 l 479 483 l 661 483 l 661 693 l 479 693 z m 661 247 l 65 247 l 65 38 l 661 38 z "},"↑":{"ha":926,"x_min":0,"x_max":0,"o":"m 696 501 l 854 669 l 463 1014 l 72 669 l 231 501 l 347 613 l 347 -201 l 578 -201 l 578 613 z "},"↓":{"ha":926,"x_min":0,"x_max":0,"o":"m 578 1014 l 347 1014 l 347 200 l 231 311 l 72 143 l 463 -201 l 854 143 l 696 311 l 578 200 z "},"|":{"ha":440,"x_min":0,"x_max":0,"o":"m 335 1094 l 106 1094 l 106 -147 l 335 -147 z "},"¦":{"ha":435,"x_min":0,"x_max":0,"o":"m 103 576 l 333 576 l 333 1094 l 103 1094 z m 333 371 l 103 371 l 103 -147 l 333 -147 z "},"@":{"ha":1157,"x_min":0,"x_max":0,"o":"m 578 968 b 58 474 278 968 58 747 b 578 -21 58 201 290 -21 b 825 38 668 -21 751 1 l 739 125 b 581 93 690 103 635 93 b 176 474 357 93 176 263 b 579 854 176 685 343 854 b 981 493 835 854 969 694 b 888 347 978 397 949 347 b 815 478 833 347 815 386 l 815 699 l 679 699 l 679 644 b 535 708 653 675 608 708 b 310 478 417 708 310 624 b 535 235 310 331 417 235 b 694 324 625 235 675 292 b 878 235 721 283 782 235 b 1100 483 1000 235 1100 314 b 578 968 1100 743 907 968 z m 575 583 b 679 472 632 583 679 535 b 575 360 679 410 633 360 b 469 472 517 360 469 410 b 575 583 469 535 518 583 z "},"&":{"ha":1013,"x_min":0,"x_max":0,"o":"m 443 961 b 104 711 222 961 104 839 b 199 513 104 629 151 556 b 68 267 128 446 68 367 b 456 -17 68 97 236 -17 b 719 58 567 -17 651 13 l 800 -14 l 957 122 l 857 211 b 911 460 893 278 911 354 l 694 460 b 688 360 694 407 692 383 b 460 563 590 447 483 542 b 347 714 418 600 347 667 b 456 778 347 756 401 778 b 581 667 546 778 581 715 l 797 667 b 443 961 797 771 719 961 z m 350 381 l 560 197 b 465 181 531 185 493 181 b 307 296 374 181 307 228 b 350 381 307 332 325 358 z "},"¶":{"ha":1068,"x_min":0,"x_max":0,"o":"m 661 944 l 432 944 b 65 568 219 944 65 774 b 432 190 65 364 229 190 l 432 0 l 661 0 z m 963 944 l 732 944 l 732 0 l 963 0 z "},"©":{"ha":1419,"x_min":0,"x_max":0,"o":"m 710 1135 b 39 464 339 1135 39 835 b 710 -206 39 94 339 -206 b 1379 464 1079 -206 1379 94 b 710 1135 1379 835 1079 1135 z m 710 -74 b 171 464 411 -74 171 167 b 710 1004 171 761 411 1004 b 1249 464 1007 1004 1249 761 b 710 -74 1249 167 1007 -74 z m 853 400 b 708 319 828 353 781 319 b 549 478 610 319 549 393 b 708 633 549 569 610 633 b 856 553 782 633 831 601 l 1026 651 b 708 815 967 750 856 815 b 343 478 494 815 343 661 b 708 132 343 294 494 132 b 1025 301 856 132 964 203 z "},"®":{"ha":1419,"x_min":0,"x_max":0,"o":"m 710 1133 b 39 463 339 1133 39 833 b 710 -207 39 93 339 -207 b 1379 463 1079 -207 1379 93 b 710 1133 1379 833 1079 1133 z m 710 -75 b 171 463 411 -75 171 165 b 710 1003 171 760 411 1003 b 1249 463 1007 1003 1249 760 b 710 -75 1249 165 1007 -75 z m 767 794 l 435 794 l 435 132 l 611 132 l 611 290 l 713 290 l 806 132 l 1010 132 l 878 331 b 1003 542 946 371 1003 450 b 767 794 1003 689 903 794 z m 740 633 b 825 542 786 633 825 588 b 733 453 825 494 782 453 l 611 453 l 611 633 z "},"§":{"ha":846,"x_min":0,"x_max":0,"o":"m 422 1025 b 79 792 218 1025 79 922 b 160 636 79 717 111 669 b 79 483 108 597 79 542 b 415 236 79 308 253 285 b 556 156 485 214 556 199 b 449 106 556 136 533 106 b 288 228 304 106 288 228 l 68 228 b 436 -65 68 119 172 -65 b 778 171 668 -65 778 24 b 707 315 778 236 750 283 b 778 481 756 357 778 411 b 447 726 778 653 578 690 b 303 797 382 744 303 760 b 414 843 303 833 356 843 b 544 750 501 843 544 789 l 761 750 b 422 1025 761 868 657 1025 z m 431 544 b 567 476 506 544 567 514 b 431 408 567 446 526 408 b 292 476 354 408 292 438 b 431 544 292 517 358 544 z "},"™":{"ha":1443,"x_min":0,"x_max":0,"o":"m 1388 944 l 1219 944 l 1029 540 l 842 944 l 672 944 l 672 375 l 824 375 l 824 639 l 946 375 l 1115 375 l 1236 639 l 1236 375 l 1388 375 z m 588 943 l 44 943 l 44 806 l 242 806 l 242 375 l 393 375 l 393 806 l 588 806 z "},"°":{"ha":440,"x_min":0,"x_max":0,"o":"m 219 1042 b 24 847 111 1042 24 956 b 219 651 24 736 111 651 b 417 847 329 651 417 736 b 219 1042 417 956 331 1042 z m 219 929 b 303 847 264 929 303 893 b 219 765 303 800 264 765 b 136 847 175 765 136 800 b 219 929 136 893 175 929 z "},"^":{"ha":624,"x_min":0,"x_max":0,"o":"m 318 765 l 518 643 l 571 807 l 318 953 l 53 807 l 106 643 z "},"†":{"ha":754,"x_min":0,"x_max":0,"o":"m 492 893 l 261 893 l 261 682 l 53 682 l 53 471 l 261 471 l 261 28 l 492 28 l 492 471 l 701 471 l 701 682 l 492 682 z "},"‡":{"ha":754,"x_min":0,"x_max":0,"o":"m 701 471 l 701 682 l 492 682 l 492 893 l 261 893 l 261 682 l 53 682 l 53 471 l 261 471 l 261 397 l 53 397 l 53 186 l 261 186 l 261 28 l 492 28 l 492 186 l 701 186 l 701 397 l 492 397 l 492 471 z "},"̦":{"ha":0,"x_min":0,"x_max":0,"o":"m -31 -242 l -276 -501 l -414 -393 l -221 -93 z "},"´":{"ha":601,"x_min":0,"x_max":0,"o":"m 47 965 l 115 828 l 558 965 l 486 1147 z "},"˘":{"ha":583,"x_min":0,"x_max":0,"o":"m 532 940 l 392 1008 b 290 935 371 965 333 935 b 192 1008 250 935 214 965 l 53 940 b 288 771 88 843 182 771 b 532 940 403 771 496 843 z "},"ˇ":{"ha":747,"x_min":0,"x_max":0,"o":"m 589 1057 l 374 911 l 158 1057 l 60 931 l 374 732 l 688 931 z "},"¸":{"ha":597,"x_min":0,"x_max":0,"o":"m 276 -458 l 474 -72 l 272 -72 l 74 -374 z "},"ˆ":{"ha":747,"x_min":0,"x_max":0,"o":"m 374 901 l 603 749 l 701 868 l 374 1065 l 46 868 l 144 749 z "},"¨":{"ha":757,"x_min":0,"x_max":0,"o":"m 182 1072 b 53 939 111 1072 53 1013 b 182 810 53 869 111 810 b 314 939 256 810 314 869 b 182 1072 314 1013 256 1072 z m 571 1072 b 442 939 501 1072 442 1013 b 571 810 442 869 501 810 b 704 939 644 810 704 869 b 571 1072 704 1013 644 1072 z "},"˙":{"ha":367,"x_min":0,"x_max":0,"o":"m 182 1072 b 53 939 111 1072 53 1013 b 182 810 53 869 111 810 b 314 939 256 810 314 869 b 182 1072 314 1013 256 1072 z "},"`":{"ha":601,"x_min":0,"x_max":0,"o":"m 42 965 l 485 828 l 558 969 l 119 1151 z "},"˝":{"ha":851,"x_min":0,"x_max":0,"o":"m 60 700 l 210 678 l 451 956 l 256 975 z m 419 700 l 569 678 l 811 956 l 615 975 z "},"¯":{"ha":739,"x_min":0,"x_max":0,"o":"m 678 875 l 678 1058 l 57 1058 l 57 875 z "},"˛":{"ha":458,"x_min":0,"x_max":0,"o":"m 382 24 l 186 24 b 57 -137 142 -4 57 -53 b 249 -282 57 -229 169 -282 l 374 -187 b 297 -104 372 -187 297 -140 b 382 24 297 -67 329 -18 z "},"˚":{"ha":442,"x_min":0,"x_max":0,"o":"m 218 1125 b 53 954 129 1125 53 1049 b 218 788 53 864 129 788 b 389 954 313 788 389 864 b 218 1125 389 1049 313 1125 z m 219 1006 b 271 956 249 1006 271 983 b 219 906 271 929 249 906 b 171 956 193 906 171 929 b 219 1006 171 983 193 1006 z "},"˜":{"ha":789,"x_min":0,"x_max":0,"o":"m 231 1042 b 53 981 136 1042 54 983 l 96 808 b 233 843 96 808 158 843 b 504 786 335 843 399 786 b 711 878 631 786 711 872 l 654 1025 b 504 982 654 1025 603 982 b 231 1042 411 982 350 1042 z "}}}
